<svg width="375" height="812" viewBox="0 0 375 812" fill="none" xmlns="http://www.w3.org/2000/svg">
<g clip-path="url(#clip0_1_4)">
<rect width="375" height="812" fill="#B2F0F9"/>
<g clip-path="url(#clip1_1_4)">
<path d="M547.71 312.5C549.776 299.447 547.548 286.077 541.36 274.4C540.2 272.22 538.79 269.99 536.57 268.9C528.36 264.9 521.97 278.75 512.9 279.9C503.46 231.69 465.9 190.07 418.9 175.74C413.77 174.23 408.02 173 403.18 175.21C399.79 176.75 397.31 179.71 394.95 182.59C381.16 199.39 367.17 216.52 358.88 236.59C350.88 255.92 348.19 277.92 335.36 294.45C328.92 282.22 314.54 275.78 300.73 275.37C286.92 274.96 273.49 279.61 260.73 284.82C245.95 290.82 231.42 297.74 218.49 307.09C226.02 320.78 244.91 322.29 260.49 320.76C276.07 319.23 293.77 317.04 305.41 327.45C308.29 330.03 310.73 333.34 314.35 334.66C319.35 336.5 324.77 333.97 329.67 331.87C362.33 317.92 399.6 322.16 434.67 327.66C469.74 333.16 506.23 339.58 540.27 329.44C556.86 324.5 573.53 315.61 590.5 319.06C583.894 314.932 576.505 312.218 568.798 311.087C561.091 309.956 553.233 310.434 545.72 312.49" fill="white"/>
<path d="M325.19 286.12C325.578 286.433 325.948 286.767 326.3 287.12C325.79 286.66 325.44 286.35 325.19 286.12Z" fill="#F6F6F6"/>
<path d="M315.41 280.71L315.23 280.43C315.68 280.72 315.84 280.88 315.41 280.71Z" fill="#F6F6F6"/>
<path d="M324.66 336.56C323.523 337.156 322.339 337.657 321.12 338.06C320.07 338.39 319.32 338.46 319.48 338.23L320.3 337.7C321.802 337.542 323.272 337.157 324.66 336.56Z" fill="#F6F6F6"/>
<path d="M224.77 302.93L224.26 303.42L222.68 303.97L224.77 302.93Z" fill="#F6F6F6"/>
<path d="M227.15 303.55L229.67 301.68C229.11 302.11 228.31 302.73 227.15 303.55Z" fill="#F6F6F6"/>
<path d="M357.72 248L358.72 246.34C357.8 249.18 358.02 247.87 357.72 248Z" fill="#F6F6F6"/>
<path d="M323.91 279.68C324.79 280.29 325.1 280.68 325.03 280.68C324.16 280 323.66 279.66 323.91 279.68Z" fill="#F6F6F6"/>
<path d="M282.92 317.24C283.53 317.41 284.06 317.53 284.56 317.62C285.06 317.71 285.51 317.82 285.95 317.89C286.82 318.01 287.63 318.03 288.56 318.14C287.87 318.44 287.2 318.77 286.56 319.14C285.36 318.47 284.16 317.82 282.92 317.24Z" fill="#F6F6F6"/>
<path d="M345.35 282.72C344.86 283.97 344.42 285.24 343.89 286.49C346.73 282.49 347.84 279.07 346.83 282.78C346.08 282.78 344.39 286.29 342.36 289.68L340.36 292.74C339.46 294.01 338.57 295.17 337.81 296.14C337.227 296.901 336.606 297.632 335.95 298.33C335.49 298.79 335.22 298.98 335.17 298.64L335.09 298.73L332.89 295.53C333.56 296.61 333.63 296.91 334.28 298C333.71 297.19 333.28 296.42 332.79 295.75C332.3 295.08 331.96 294.47 331.65 293.92C331.34 293.37 331.08 292.92 330.85 292.42C330.748 292.171 330.628 291.931 330.49 291.7C330.38 291.5 330.37 291.44 330.3 291.3C330.056 290.704 329.765 290.129 329.43 289.58C329.146 289.197 328.843 288.83 328.52 288.48L327.91 287.82C327.67 287.59 327.4 287.37 327.1 287.13C326.8 286.89 326.3 286.5 325.97 286.26C325.64 286.02 325.32 285.87 325.11 285.76C324.7 285.56 324.65 285.63 325.17 286.12C323.998 285.071 322.758 284.099 321.46 283.21C320.24 282.56 320.46 282.93 321.63 283.58C319.57 282.332 317.409 281.258 315.17 280.37V280.43C314.71 280.16 313.96 279.76 313.17 279.36C312.38 278.96 311.55 278.64 311.01 278.36C309.16 278.07 311.88 278.74 311.37 278.79C310.74 278.54 310.09 278.34 309.44 278.14C308.79 277.94 308.14 277.72 307.44 277.57C306.58 277.57 306.98 277.85 307.93 278.14C308.88 278.43 310.35 278.83 311.68 279.22C310.304 279.384 308.91 279.205 307.62 278.7C305.28 277.959 302.813 277.701 300.37 277.94C301.62 278.07 302.87 278.15 304.11 278.38C302.747 278.593 301.37 278.7 299.99 278.7C298.159 278.736 296.333 278.917 294.53 279.24C295.02 279.06 297.12 278.64 298.59 278.33C300.06 278.02 300.89 277.71 298.69 277.52C296.938 277.67 295.178 277.714 293.42 277.65C293.42 278.13 291.12 278.22 288.23 278.65L288.53 279.25C286.926 279.417 285.312 279.47 283.7 279.41C280.26 280.29 279.7 281.02 279.01 281.63C273.6 283.35 282.55 279.72 276.01 281.55C271.55 283.23 268.33 284.13 262.84 285.91C259.84 287.37 263.53 286.05 262.48 286.67L259.48 287.33C258.81 287.62 259.09 287.67 259.23 287.7C256.83 288.49 258.79 287.19 255.07 288.57C253.79 288.34 248.07 292.73 243.32 294.18C242.32 294.87 244.01 294.28 243.79 294.66C240.67 295.89 239.35 296.48 238.16 296.97L233.52 299C232.187 299.887 230.903 300.793 229.67 301.72C232.4 299.56 228.3 301.25 224.77 302.97C225.68 302.1 226.47 301.38 227.03 300.97C225.197 301.95 223.387 302.977 221.6 304.05C221.04 304.56 221.68 304.39 222.68 304.05L221.68 304.56C220.77 305.31 220.68 305.56 220.97 305.56C221.55 305.468 222.114 305.3 222.65 305.06L224.29 303.5C225.78 302.99 227.22 302.61 227.15 303.09C226.53 303.364 225.929 303.678 225.35 304.03C225.75 303.9 226.01 303.85 225.89 304.03C225.361 304.364 224.794 304.632 224.2 304.83L223.44 306.21H223L222.62 306.5L222.4 306.68L222 307.03L221.27 307.68L221.19 307.75C221.19 307.75 221.24 307.83 221.26 307.86L221.43 308.07L221.76 308.48C221.953 308.74 222.171 308.982 222.41 309.2C222.41 309.29 222.65 309.62 222.82 309.9C222.979 310.19 223.159 310.467 223.36 310.73L224.59 312.31C225.01 312.85 225.53 313.31 226.02 313.81C226.532 314.342 227.091 314.827 227.69 315.26C230.665 317.536 234.091 319.152 237.74 320C235.64 319 237.47 319.07 237.48 318.44C236.747 318.446 236.018 318.335 235.32 318.11C234.92 317.99 234.49 317.86 234.06 317.71L232.74 317.13C230.797 316.213 228.91 315.181 227.09 314.04C229.09 315.17 228.83 314.65 228.38 314.26C229.47 315.021 230.609 315.71 231.79 316.32C233.012 316.913 234.264 317.444 235.54 317.91C235.54 317.64 235.97 317.67 236.67 317.81C237.37 317.95 238.38 318.11 239.44 318.24C239 318.4 239.14 318.6 239.65 318.83C240.471 319.092 241.31 319.296 242.16 319.44C243.23 319.62 244.47 319.75 245.65 319.89C246.83 320.03 247.97 320.1 248.82 320.19C249.04 319.84 248.23 319.57 244.13 319.28C245.097 319.227 246.067 319.254 247.03 319.36C247.86 319.47 248.58 319.67 249.31 319.82C250.066 320.013 250.835 320.153 251.61 320.24C252.575 320.312 253.546 320.265 254.5 320.1C253.834 320.186 253.157 320.158 252.5 320.02C254.103 320.133 255.713 320.1 257.31 319.92C258.89 319.74 259.98 319.51 259.31 319.42L258.31 319.5C261.65 319.18 266.88 318.57 271.41 318.39C275.94 318.21 279.77 318.44 280.28 318.88C280.35 318.77 279.38 317.88 278.95 317.68C283.084 318.545 287.108 319.866 290.95 321.62C290.5 321.15 291.37 320.71 291.68 320.19C291.84 319.93 291.86 319.65 291.47 319.32C291.192 319.106 290.886 318.931 290.56 318.8C290.001 318.602 289.43 318.442 288.85 318.32C289.859 318.382 290.862 318.522 291.85 318.74C292.44 318.88 293.08 319 293.79 319.22C294.5 319.44 295.26 319.74 296.11 320.06C294.93 319.81 293.04 320.23 294.52 320.75C295.318 320.809 296.11 320.93 296.89 321.11C297.45 321.23 297.89 321.34 298.28 321.46C298.808 321.603 299.325 321.78 299.83 321.99L301.01 322.44C301.569 322.635 302.114 322.869 302.64 323.14C301.84 322.73 301.73 323.04 302.09 323.63C302.334 323.998 302.623 324.333 302.95 324.63C303.15 324.817 303.37 325.007 303.61 325.2C303.842 325.426 304.086 325.64 304.34 325.84C304.11 325.44 305.22 325.09 304.49 324.35C305.28 325.25 306.11 326.08 306.82 327C307.53 327.92 308.16 328.83 308.82 329.73C307.82 328.42 309.31 328.88 310.53 329.63C310.23 329.47 311.2 330.48 312.41 331.39C313.428 332.166 314.571 332.761 315.79 333.15C315.032 333.031 314.293 332.816 313.59 332.51C314.672 333.09 315.825 333.527 317.02 333.81C317.898 334.036 318.79 334.203 319.69 334.31C322.095 334.549 324.519 334.113 326.69 333.05C325.77 333.16 324.16 332.55 327.49 331.05C328.37 330.96 330.49 330.88 333.02 330.61C334.32 330.5 335.7 330.22 337.21 330.07C338.765 329.882 340.308 329.601 341.83 329.23C342.19 329 342.56 328.77 342.93 328.57L347.8 327.71C347.01 327.71 345.86 327.71 344.51 327.71L342.33 327.78C341.57 327.84 340.78 327.93 339.98 328.01C338.37 328.19 336.69 328.36 335.13 328.6C333.57 328.84 332.13 329.2 330.94 329.48C333.48 328.22 331.52 328.8 335.51 327.34C336.17 326.97 335.58 327.01 334.68 327.26C333.78 327.51 332.59 327.94 332 328.15C335 326.8 338.21 325.86 341.34 324.76C341.1 325.53 348.83 323.51 348.59 324.2C345.09 324.83 341.59 325.41 338.1 326.36C337.99 326.75 339.61 326.71 342.1 326.36C343.34 326.23 344.79 326.03 346.35 325.75L348.75 325.28C349.58 325.14 350.42 324.98 351.26 324.8C352.93 324.19 349.73 323.88 349.82 323.63C351.062 323.565 352.298 323.418 353.52 323.19C355.12 322.9 356.69 322.77 356.99 322.62C355.99 322.62 354.99 322.62 353.99 322.72C355.694 322.367 357.43 322.196 359.17 322.21C361.094 322.159 363.009 321.928 364.89 321.52C365.901 321.343 366.903 321.112 367.89 320.83C368.89 320.61 369.77 320.46 369.89 320.65C367.32 321.56 367.03 323.98 368.77 324.43L373.3 323.74C375.5 323.38 377.89 323.15 378.79 322.92C381.39 322.27 374.84 321.55 377.05 321C377.744 321.255 378.472 321.403 379.21 321.44C380.88 321.27 378.51 320.86 382.15 320.94C382.76 321.63 389.55 321 383.87 321.54C387.42 321.79 387.65 321.44 391.81 321.68C390.47 322.05 395.47 323.32 398.97 323.82C398.77 323.63 399.58 323.47 399.97 323.39C407.19 323.95 411.1 324.07 417.8 324.93C418.44 324.85 421.7 325.08 420.36 324.61C421.626 325.007 422.919 325.312 424.23 325.52C428.31 325.52 419.64 324.77 422.78 324.52C422.99 324.96 428.05 325.82 430.94 326.52C429.94 326.97 424.14 325.62 421.23 324.97C421.1 325.81 426.1 327.37 433 328.84C438.51 329.91 435.49 328.68 436.43 328.95C446.86 330.43 445.07 331.8 453.83 332.51C457.35 332.51 454.14 331.51 454.96 331.2C450.47 330.32 447.96 330.5 444.91 330L448.72 330.33C446.73 329.801 444.7 329.433 442.65 329.23C445.6 329.23 460.25 331.9 468.38 332.38C469.79 332.72 472.25 333.19 471.05 333.27L468.51 332.91C466.1 333.07 473.25 334.05 469.99 333.91C473.959 334.875 478.01 335.461 482.09 335.66L483.09 335.11C482.496 335.24 481.885 335.274 481.28 335.21C480.36 335.186 479.444 335.085 478.54 334.91C480.54 335.41 486.05 334.67 488.21 335.62L484.78 335.81C486.5 336.1 488.43 336.47 490.48 336.72C492.595 337.033 494.733 337.164 496.87 337.11C494.87 337.67 495.87 337.11 492.76 337.65C494.11 337.27 491.33 337.16 488.76 337.05C486.19 336.94 483.82 336.71 485.99 336.41C484.514 336.658 483.015 336.745 481.52 336.67C479.788 336.564 478.052 336.564 476.32 336.67C476.47 336.48 477.82 336.43 474.18 336.18C473.93 336.071 473.673 335.981 473.41 335.91V335.91C473.25 335.86 473.24 335.85 473.48 335.91C474.109 335.942 474.74 335.901 475.36 335.79C473.61 335.15 467.87 334.53 465.97 334.02C463.82 333.84 466.83 334.36 465.64 334.43L462.8 333.69C462.45 334.11 457.03 333.69 462.02 334.61C460.51 334.43 459.02 334.2 457.5 334C454.612 333.861 451.74 333.493 448.91 332.9C446.77 332.67 443.63 331.57 445.42 332.21L438.42 330.83L438.34 330.93C431.39 329.93 424.16 327.93 416.12 327.75C413.26 327.21 410.372 326.829 407.47 326.61L406.66 326.92C405.17 326.71 402.91 326.58 400.87 326.47C399.356 326.474 397.845 326.327 396.36 326.03C394.71 326.4 391.08 326.3 387.19 326.1L381.39 325.89C379.55 325.89 377.86 325.89 376.54 325.97L376.33 325.47C374.52 325.47 372.75 325.61 370.87 325.64C369.92 325.64 368.95 325.64 367.94 325.71L364.74 325.89L364.97 325.42C363.87 325.431 362.772 325.505 361.68 325.64C360.48 325.82 359.18 326.06 357.81 326.32C355.07 326.77 352.13 327.64 349.12 328.18C350.142 328.13 351.151 327.939 352.12 327.61C351.25 327.91 350.36 328.17 349.46 328.4C348.56 328.63 347.66 328.92 346.74 329.14C344.92 329.62 343.03 329.91 341.22 330.43C339.41 330.95 337.57 331.3 335.87 331.91C334.233 332.467 332.636 333.135 331.09 333.91C329.774 334.313 328.501 334.846 327.29 335.5L327.7 335.36L327.04 335.64C326.35 335.99 325.63 336.36 324.81 336.72C325.49 336.37 326.13 336.04 326.68 335.78C324.942 336.458 323.134 336.945 321.29 337.23C321.01 337.44 320.74 337.66 320.45 337.86L319.93 337.91C317.7 338.26 318.15 337.78 319.29 337.38C318.304 337.393 317.321 337.268 316.37 337.01C315.024 337.174 313.663 336.855 312.53 336.11C311.13 335.37 309.95 334.35 308.81 333.92C308.37 333.32 306.62 331.44 305.1 329.75C303.58 328.06 301.86 326.67 301.65 326.08C301.53 326.14 301.05 325.89 301.88 326.43C300.99 325.92 300.12 325.37 299.21 324.96C298.76 324.74 298.33 324.51 297.91 324.27C297.49 324.03 297.04 323.85 296.63 323.62L295.63 323.87C295 323.45 294.3 323.16 293.63 322.79C292.95 322.416 292.249 322.082 291.53 321.79C290.635 321.652 289.725 321.652 288.83 321.79C288.51 321.91 288.9 322.12 290.18 322.59C288.307 322.018 286.391 321.6 284.45 321.34C283.22 321.23 282.14 321.04 279.27 320.69L279.54 321.08C277.54 321.08 274.2 320.67 272.97 321.08C271.74 321.49 269.84 321.58 267.31 321.87C264.78 322.16 261.73 322.51 258.31 322.78C251.421 323.362 244.487 323.137 237.65 322.11C238.94 321.78 237.51 321.65 235.72 321.37C234.83 321.2 233.84 321.02 233.07 320.79C232.3 320.56 231.75 320.25 231.72 320C230.94 320 229.22 319.53 231.05 320.47C230.3 320.18 229.62 319.82 228.97 319.47C228.32 319.12 227.68 318.9 227.12 318.55C226.054 317.993 225.022 317.371 224.03 316.69C223.122 316.1 222.283 315.409 221.53 314.63C221.15 314.24 220.79 313.85 220.43 313.43C220.094 312.977 219.786 312.502 219.51 312.01C218.8 311.6 220.12 313.38 219.56 312.96L219.24 312.48L219 312.13L218.64 311.65C218.12 311.02 217.74 310.31 217.36 309.9C216.98 309.49 217.14 309.81 217.47 310.42C217.654 310.784 217.858 311.138 218.08 311.48L218.84 312.48C218.438 312.017 218.06 311.533 217.71 311.03L216.85 309.62C216.33 308.727 215.89 307.957 215.53 307.31L215.27 306.83C215.21 306.69 215.02 306.52 215.27 306.45L216.13 305.93C216.67 305.62 217.13 305.37 217.52 305.18C219.1 304.43 219.7 304.5 220.24 304.61L221.3 303.74L222.08 303.12C222.538 302.757 223.019 302.423 223.52 302.12C224.444 301.563 225.426 301.11 226.45 300.77C227.26 299.97 228.69 298.77 225.32 300.77C226.24 300.17 229.04 298.32 231.76 296.77C234.48 295.22 237.03 293.97 237.28 294.2C238.301 293.54 239.391 292.994 240.53 292.57C244.92 290.37 245.29 290.14 249.7 288.2L248.52 288.84C250.57 288.76 252.24 287.36 255.85 285.93H255.72C257.583 284.923 259.522 284.064 261.52 283.36C263.493 282.658 265.42 281.833 267.29 280.89L267.01 281.5C268.12 282.18 274.1 278.2 279.21 277.26L277.5 278.02C279.241 277.588 280.92 276.939 282.5 276.09C283.42 275.67 284.34 275.25 285.2 274.88C285.976 274.555 286.775 274.288 287.59 274.08C288.19 273.88 286.59 274.08 285.73 274.22C286.82 273.876 287.937 273.629 289.07 273.48C289.6 273.48 289.68 273.48 289.7 273.65C289.72 273.82 289.55 274.24 292.33 274C292.82 273.77 292.47 273.59 292.46 273.41C292.45 273.23 292.79 273.03 294.69 272.86C296.989 272.683 299.301 272.77 301.58 273.12C304.78 273.45 308.28 274.12 310.89 274.47C309.7 274.47 308.56 274.47 311.06 275.24C312.06 275.48 313.16 275.78 314.4 276.06C315.64 276.34 316.93 276.71 318.19 277.17C319.422 277.589 320.622 278.097 321.78 278.69C322.751 279.194 323.652 279.822 324.46 280.56C324.93 280.78 325.13 280.83 325.18 280.79C325.81 281.25 326.63 281.79 327.48 282.58C328.395 283.319 329.267 284.11 330.09 284.95C330.859 285.735 331.586 286.56 332.27 287.42C332.71 288.014 333.108 288.639 333.46 289.29C334.24 289.48 334.87 290.12 335.46 291.29C335.46 291.29 335.51 291.4 335.53 291.4L335.62 291.29L335.79 291.07L336.15 290.64C336.4 290.34 336.67 290.05 336.93 289.72L337.32 289.21L337.52 288.95L337.81 288.54C338.21 287.96 338.62 287.42 338.94 286.87C339.497 285.982 340.004 285.064 340.46 284.12C340.75 283.39 340.82 282.91 340.58 282.8C341.25 281.48 341.93 280.16 342.51 278.8C343.09 277.44 343.71 276.08 344.27 274.69L344.04 274.85C345.076 271.744 346.377 268.733 347.93 265.85C348.24 264.54 347.81 265.43 347.7 265.51C349.97 257.37 350.2 256.51 353.08 249.97L352.83 249.11C353.27 248.23 354 245.23 355.19 241.5C356.431 237.377 358.107 233.398 360.19 229.63C360.11 229.63 359.95 229.79 359.59 230.37C361.88 226.19 364.32 221.05 366.76 216.75C369.2 212.45 371.56 209 373.27 208.09C374.59 206.48 375.91 204.88 377.27 203.31C372.67 209.89 378.59 202.79 376.9 205.64C378.83 203.16 381.33 198.79 378.9 201.83L378.61 202.37C377.8 202.66 379.22 200.6 380.8 198.48C382.38 196.36 384.1 194.16 383.8 194.05L391.02 184.75L394.66 180.21C395.919 178.612 397.321 177.132 398.85 175.79C400.492 174.376 402.409 173.317 404.48 172.68C406.517 172.101 408.637 171.871 410.75 172C412.742 172.13 414.717 172.444 416.65 172.94C417.65 173.17 418.52 173.42 419.43 173.69L422.1 174.6L420.25 174.73L425.18 176.39C426.52 176.67 427.11 176.45 423.58 175.26C424.849 175.52 426.074 175.957 427.22 176.56C428.001 176.885 428.723 177.334 429.36 177.89C436.17 180.48 427.06 175.99 429.12 176.89L431.9 178.14L431.23 177.95C432.31 178.57 432.87 178.95 433.67 179.44C434.07 179.67 434.53 179.92 435.15 180.22C435.77 180.52 436.56 180.82 437.55 181.35C440.13 182.5 439.04 181.6 440.04 182.09C440.04 182.04 440.41 182.19 441.57 182.85C443.57 183.85 445.52 184.78 447.38 185.94C446.53 185.66 445.69 185.36 444.84 185.1C447.2 186.83 450.13 188.25 447.22 187.25C448.999 187.961 450.72 188.806 452.37 189.78C454.55 191.1 456.99 192.84 459.42 194.51C460.66 195.32 461.76 196.29 462.84 197.14L465.84 199.56C466.74 200.3 467.57 200.9 468.18 201.44C468.79 201.98 469.26 202.38 469.54 202.58C470.9 204.1 472.32 205.58 473.86 207.01C475.4 208.44 476.86 210.15 478.65 211.91C477.71 211.1 476.73 211.02 479.74 214.03C479.74 211.91 485.32 219.53 488.22 221.66C485.87 219.56 495.36 231.58 491.72 228.19C492.29 228.88 492.57 229.25 492.72 229.41C492.87 229.57 492.95 229.53 493 229.47C493.05 229.41 493.15 229.1 494 230.16C495 232.02 496.22 233.93 497.48 235.88C498.74 237.83 499.89 240 501.17 242.1C502.472 244.277 503.66 246.52 504.73 248.82C505.303 249.98 505.873 251.15 506.44 252.33C506.99 253.52 507.44 254.77 507.89 256C507.78 256.22 506.89 254.68 507.47 256.88C508.4 258.5 509.38 260.12 510.29 261.77C510.83 263.77 509.9 263.92 511.61 267.38C511.31 266.91 510.86 266.21 511.22 267.56C511.58 268.91 512.12 269.98 512.45 271.23C512.78 272.48 513.1 273.75 513.45 275.01L514.02 277.29L514.09 277.56C514.09 277.63 514.09 277.79 514.22 277.72C514.4 277.699 514.577 277.662 514.75 277.61C515.093 277.523 515.428 277.406 515.75 277.26C516.095 277.114 516.429 276.943 516.75 276.75C517.16 276.51 517.75 276.14 518.22 275.81C519.22 275.12 520.22 274.33 521.22 273.52C523.235 271.75 525.356 270.104 527.57 268.59C528.817 267.774 530.193 267.175 531.64 266.82C533.221 266.47 534.87 266.581 536.39 267.14C537.855 267.708 539.159 268.625 540.19 269.81C541.119 270.894 541.931 272.074 542.61 273.33C543.91 275.69 545.1 278.09 546.17 280.55C547.24 283.01 548.17 285.55 548.99 288.11C547.92 285.38 548.43 287.26 548.89 289.42C548.49 288.03 548.47 289.54 548.18 289.32C549.05 292.166 549.718 295.07 550.18 298.01C550.033 298.737 549.982 299.48 550.03 300.22C550.03 301.22 550.03 302.37 550.03 303.52C550.03 304.1 550.03 304.67 550.03 305.2C550.03 305.73 549.96 306.25 549.91 306.69C549.908 307.303 549.768 307.908 549.5 308.46C549.65 307.54 549.7 306.6 549.8 305.67C549.31 307.51 549.01 306.17 548.61 304.5C548.21 302.83 547.67 300.8 547.21 301.08C547.56 299.08 547.08 296.4 546.33 293.54C545.437 290.498 544.726 287.406 544.2 284.28C543.58 282.96 544.28 285.55 543.83 284.88C543.72 283.19 543.16 281.22 541.45 277.88L541.53 278.31C540.677 276.235 539.594 274.263 538.3 272.43C537.781 271.76 537.156 271.179 536.45 270.71C535.79 270.327 535.058 270.085 534.3 270C532.624 269.907 530.973 270.434 529.66 271.48C527.639 272.973 525.709 274.586 523.88 276.31L524.26 275.37C522.31 277.1 521.94 277.57 520.99 278.43C519.5 279.05 521.09 277.94 522.54 276.73C523.99 275.52 525.39 274.27 524.11 274.85C523.19 276.029 522.125 277.087 520.94 278C520.55 278.31 520.13 278.63 519.68 278.94C519.46 279.1 519.22 279.25 518.98 279.4L518.62 279.63L518.14 279.9C516.815 280.655 515.381 281.201 513.89 281.52C513.52 281.6 513.17 281.69 512.79 281.75L512.24 281.85L511.96 281.9C511.96 281.9 511.85 281.9 511.83 281.9V281.77L511.16 279.77C510.936 279.113 510.746 278.446 510.59 277.77L510.33 276.77L510.11 275.95C509.849 274.75 509.407 273.597 508.8 272.53C508.66 272.038 508.556 271.537 508.49 271.03C508.49 270.89 508.6 271.03 508.71 271.12C508.82 271.21 509.15 271.6 508.56 269.73L507.97 268.83L508.02 267.69C507.2 265.25 506.46 264.14 506.2 264.13C506.41 264.71 506.65 265.83 506.83 266.47C505.67 263.37 503.75 257.66 503.27 256.62L504.8 260.05L503.39 256.21C503.13 255.56 502.91 254.88 502.62 254.21L501.72 252.26L499.87 248.26L498.93 246.26L497.87 244.33L495.75 240.49L494.75 238.58C494.4 237.95 494 237.35 493.63 236.75C492.9 235.53 492.17 234.34 491.46 233.17L490.46 231.43L489.96 230.56L489.43 229.75L490.08 230.25C488.782 228.223 487.362 226.276 485.83 224.42C484.83 223.09 483.51 221.85 480.83 218.42L481 218.69C480.52 217.96 479.93 217.13 479.26 216.25C478.59 215.37 477.75 214.56 476.92 213.71C478.25 215.46 473.7 211.09 475.48 213.36C474.08 211.74 473.21 210.73 472.64 210.04C472.07 209.35 471.76 209.04 471.55 208.76C470.831 207.667 470.046 206.618 469.2 205.62L467.98 205.01C467.38 204.23 467.08 203.78 466.53 203.15C465.562 202.164 464.533 201.238 463.45 200.38C466.04 202.86 460.93 199.09 463.78 201.91C462.109 200.805 460.497 199.613 458.95 198.34C457.57 197.27 456.34 196.34 455.26 195.5C453.08 193.81 451.42 192.41 449.26 191.9C447.75 190.39 449.51 191.28 451.42 192.38C453.33 193.48 455.2 195.04 454.31 194.28C455.2 194.7 454.61 194.05 453.48 193.1C452.9 192.63 452.23 192.04 451.48 191.55C450.73 191.06 449.99 190.61 449.36 190.26C446.81 188.82 444.53 188.66 438.02 185.42C438.67 185.75 438.68 185.84 439.32 186.17C438.065 185.62 436.849 184.985 435.68 184.27C434.334 183.545 432.916 182.962 431.45 182.53C429.97 181.23 427.45 180.86 427.24 179.91L433.34 182.72C431.54 182 429.96 181 428.02 180C425.689 178.857 423.246 177.958 420.73 177.32C421.789 177.951 422.888 178.512 424.02 179C422.21 178.63 420.73 177.7 418.86 177.31C419 177.78 420.86 178.48 423.24 179.31C424.4 179.72 425.67 180.16 426.88 180.62C427.954 181.089 429.003 181.617 430.02 182.2C428.656 181.713 427.32 181.149 426.02 180.51C424.7 179.98 423.84 179.67 424.65 180.4C423.181 179.388 421.536 178.659 419.8 178.25C417.8 177.61 415.67 177.1 413.43 176.25L413.64 176.77C412.528 176.376 411.373 176.118 410.2 176C410.98 176.24 411.76 176.56 412.52 176.88C410.845 176.369 409.066 176.307 407.36 176.7C405.867 177.078 404.428 177.646 403.08 178.39C403.935 177.877 404.835 177.445 405.77 177.1C406.23 176.93 406.28 176.84 406.2 176.76C406.12 176.68 405.38 176.49 406.82 176.03C405.271 176.124 403.78 176.654 402.52 177.56C401.86 178.063 401.292 178.675 400.84 179.37C399.283 181.779 397.548 184.069 395.65 186.22C396.322 185.427 396.943 184.592 397.51 183.72C398.02 182.95 398.19 182.52 397.36 183.34C396.081 185.001 394.892 186.73 393.8 188.52C389.03 194.21 394.15 187.32 391.92 189.59C390.78 191.92 389.43 192.27 387.27 194.7L387.63 195.02C382.63 201.85 385.42 196.14 381.09 202.4L383.57 200.26L381.03 203.26L381.96 202.94C379.708 205.358 377.717 208.006 376.02 210.84C376.31 209.84 374.97 210.77 372.89 213.84C371.74 216.13 374.03 212.89 371.12 217.29C372.388 216.264 373.384 214.942 374.02 213.44C374.27 213.33 374.92 212.63 375.19 212.52C374.444 213.898 373.623 215.233 372.73 216.52L370.5 219.9C370.87 219.28 371.32 218.52 371.5 218.11C370.72 219.11 369.96 220.11 369.23 221.18C368.5 222.25 367.73 223.24 367.03 224.31C366.61 225.44 367.2 224.68 367.78 223.93C367 225.26 366.24 226.06 365.18 228.06C365.82 227.73 366.05 228.06 367.77 225.32C367.12 226.32 366.48 227.32 365.87 228.39C365.26 229.46 364.63 230.45 364.06 231.51C364.01 232.02 362.91 235.04 363.44 234.25C362 237.93 358.99 242.97 357.63 248.18C357.293 248.755 357.022 249.365 356.82 250C355.36 254.82 354.57 259.28 352.22 264.91C352.09 266.07 351.98 267.24 351.82 268.41C350.14 272.89 352.49 263.7 349.68 271.14C347.54 276.36 349.53 273.33 349.02 275.26C346.852 279.031 344.895 282.921 343.16 286.91C343.967 285.555 344.698 284.156 345.35 282.72V282.72ZM298.9 277.56L301.02 277.81C301.645 277.92 302.285 277.92 302.91 277.81C301.73 277.22 300.75 277.39 298.9 277.56ZM220.27 308C220.27 307.76 219.76 307.39 220.32 307.17C220.673 306.857 221.007 306.523 221.32 306.17C220.97 306.39 220.61 306.64 220.25 306.91C220.072 307.04 219.901 307.18 219.74 307.33L220.27 308ZM453.9 333H453.79C451.26 332.79 452.16 332.85 453.9 333ZM459.12 333.53C459.63 333.68 459.59 333.74 459.36 333.77C458.432 333.509 457.481 333.342 456.52 333.27C457.396 333.209 458.277 333.304 459.12 333.55V333.53ZM440.49 182.53L439.49 182.18C441.52 183.33 441.02 182.92 440.49 182.5V182.53Z" fill="#F6F6F6"/>
<path d="M226.85 303.49C226.995 303.368 227.091 303.197 227.12 303.01C227.53 302.85 227.59 302.93 226.85 303.49Z" fill="#F6F6F6"/>
<path d="M357.54 248.34V248.17C357.573 248.115 357.617 248.067 357.67 248.03L357.54 248.34Z" fill="#F6F6F6"/>
<path d="M372.77 322.44L373.81 322.39L373.7 323.42L372.77 322.44Z" fill="#F6F6F6"/>
<path d="M319.84 332.45C320.84 332.23 321.41 332.05 321.77 332C321.97 331.945 322.18 331.945 322.38 332C322.63 332.06 322.82 332.21 324.71 331.33C325.26 331.24 324.48 331.62 323.71 331.96C322.94 332.3 322.17 332.58 322.71 332.52C320.02 333.1 318.82 333.23 319.84 332.45Z" fill="#F6F6F6"/>
<path d="M322.72 332.55L324.1 332.24C323.649 332.378 323.187 332.482 322.72 332.55V332.55Z" fill="#F6F6F6"/>
<path d="M290.75 279.45L290.51 279.33C291.312 279.03 292.155 278.854 293.01 278.81L290.75 279.45Z" fill="#F6F6F6"/>
<path d="M327.5 289C327.34 288.85 327.19 288.68 327.02 288.54C327.45 288.68 327.87 288.85 328.31 289.01L327.5 289Z" fill="#F6F6F6"/>
<path d="M350.73 272.9C350.26 274.3 349.53 275.9 348.98 277.29C349.477 276.147 349.862 274.958 350.13 273.74C350.34 272.93 350.46 272.59 350.73 272.9Z" fill="#F6F6F6"/>
</g>
<path d="M123.566 513.535C125.632 500.482 123.403 487.112 117.216 475.435C116.056 473.255 114.646 471.025 112.426 469.935C104.216 465.935 97.8257 479.785 88.7557 480.935C79.3157 432.725 41.7557 391.105 -5.2443 376.775C-10.3743 375.265 -16.1243 374.035 -20.9643 376.245C-24.3543 377.785 -26.8343 380.745 -29.1943 383.625C-42.9843 400.425 -56.9743 417.555 -65.2643 437.625C-73.2643 456.955 -75.9543 478.955 -88.7843 495.485C-95.2243 483.255 -109.604 476.815 -123.414 476.405C-137.224 475.995 -150.654 480.645 -163.414 485.855C-178.194 491.855 -192.724 498.775 -205.654 508.125C-198.124 521.815 -179.234 523.325 -163.654 521.795C-148.074 520.265 -130.374 518.075 -118.734 528.485C-115.854 531.065 -113.414 534.375 -109.794 535.695C-104.794 537.535 -99.3743 535.005 -94.4743 532.905C-61.8143 518.955 -24.5443 523.195 10.5257 528.695C45.5957 534.195 82.0857 540.615 116.126 530.475C132.716 525.535 149.386 516.645 166.356 520.095C159.75 515.967 152.36 513.253 144.653 512.122C136.947 510.991 129.089 511.469 121.576 513.525" fill="white"/>
<path d="M121.996 510.925C120.596 511.315 120.996 510.785 120.756 510.765C123.156 510.255 121.956 511.035 121.996 510.925Z" fill="#F6F6F6"/>
<path d="M145.546 510.795L145.166 510.555C146.276 510.905 147.406 511.185 148.496 511.555C147.526 511.265 146.536 511.035 145.546 510.795Z" fill="#F6F6F6"/>
<path d="M166.086 518.245C164.442 517.637 162.861 516.87 161.366 515.955C159.436 514.88 157.398 514.012 155.286 513.365L154.626 513.315C154.126 512.945 153.626 512.555 153.116 512.225C154.256 512.585 155.456 513.055 156.676 513.525C157.896 513.995 159.096 514.525 160.236 515.145L161.876 515.975L163.426 516.825C164.476 517.335 165.336 517.865 166.086 518.245Z" fill="#F6F6F6"/>
<path d="M156.266 522.455C156.586 522.285 156.006 522.265 155.946 522.265C155.886 522.265 156.356 522.265 158.746 522.315L158.296 522.385C157.618 522.366 156.94 522.39 156.266 522.455V522.455Z" fill="#F6F6F6"/>
<path d="M158.296 522.385C160.396 522.385 156.926 522.625 158.296 522.385V522.385Z" fill="#F6F6F6"/>
<path d="M148.516 523.275C149.456 523.195 150.406 523.075 151.346 523.025C150.786 523.255 148.346 523.775 149.266 523.715C147.826 523.895 147.266 523.985 147.266 523.885C147.634 523.595 148.06 523.387 148.516 523.275V523.275Z" fill="#F6F6F6"/>
<path d="M145.746 523.355L147.226 523.115C146.76 523.316 146.251 523.399 145.746 523.355Z" fill="#F6F6F6"/>
<path d="M150.346 522.735C149.346 522.865 148.266 522.945 147.226 523.115C147.606 522.915 147.606 522.655 148.656 522.905C148.356 522.745 149.016 522.835 150.346 522.735Z" fill="#F6F6F6"/>
<path d="M152.076 522.375C153.626 521.995 155.686 521.685 152.806 521.775C153.781 521.654 154.764 521.607 155.746 521.635C156.356 521.635 156.596 521.705 156.496 521.775C156.086 521.917 155.659 522.001 155.226 522.025L153.876 522.145L152.076 522.375Z" fill="#F6F6F6"/>
<path d="M166.656 519.445L164.656 518.445C164.146 518.025 163.596 517.675 163.056 517.295C163.876 517.825 166.876 519.335 166.656 519.445Z" fill="#F6F6F6"/>
<path d="M131.296 528.755C131.066 528.675 132.096 528.045 132.236 527.755L134.356 527.215C133.336 527.705 131.356 528.495 131.296 528.755Z" fill="#F6F6F6"/>
<path d="M132.236 527.785L129.066 528.635C131.816 527.625 132.356 527.575 132.236 527.785Z" fill="#F6F6F6"/>
<path d="M145.056 522.695L147.686 522.365L150.306 522.165C148.236 522.325 146.146 522.595 144.066 522.945C144.396 522.845 144.726 522.765 145.056 522.695Z" fill="#F6F6F6"/>
<path d="M119.346 532.885L121.256 532.635C120.146 532.825 118.996 532.985 117.866 533.155L119.346 532.885Z" fill="#F6F6F6"/>
<path d="M111.106 535.115C112.546 535.045 109.346 536.115 110.836 535.885C108.826 536.257 106.796 536.508 104.756 536.635C106.916 536.332 109.042 535.823 111.106 535.115V535.115Z" fill="#F6F6F6"/>
<path d="M101.756 536.815C102.696 536.735 103.696 536.745 104.756 536.635C103.762 536.775 102.759 536.835 101.756 536.815Z" fill="#F6F6F6"/>
<path d="M123.796 530.555C123.106 531.122 122.31 531.546 121.456 531.805L122.556 530.985L123.796 530.555Z" fill="#F6F6F6"/>
<path d="M122.596 530.955L119.926 531.875L122.596 530.955Z" fill="#F6F6F6"/>
<path d="M124.106 530.455L123.796 530.555C123.837 530.516 123.886 530.487 123.939 530.47C123.993 530.453 124.05 530.447 124.106 530.455V530.455Z" fill="#F6F6F6"/>
<path d="M137.026 525.435C135.136 525.775 131.266 526.875 134.816 525.255C136.206 525.095 134.176 526.035 137.026 525.435Z" fill="#F6F6F6"/>
<path d="M125.456 529.415L128.716 528.165C128.716 528.295 128.146 528.655 129.086 528.455L125.456 529.415Z" fill="#F6F6F6"/>
<path d="M123.786 529.855L125.456 529.415L124.236 529.875L123.786 529.855Z" fill="#F6F6F6"/>
<path d="M107.676 535.285C106.136 535.385 104.496 535.795 102.616 536.045C104.616 535.655 106.616 535.105 108.616 534.715C108.876 534.795 109.816 534.845 107.676 535.285Z" fill="#F6F6F6"/>
<path d="M114.996 533.355L114.666 533.415C114.876 533.335 115.016 533.275 114.996 533.355Z" fill="#F6F6F6"/>
<path d="M84.1157 538.035L84.4057 537.935L84.4757 538.005L84.1157 538.035Z" fill="#F6F6F6"/>
<path d="M108.876 534.575C109.942 534.282 111.028 534.068 112.126 533.935C111.016 534.195 109.836 534.485 108.566 534.715C108.466 534.685 108.436 534.655 108.876 534.575Z" fill="#F6F6F6"/>
<path d="M96.5657 537.395C97.3457 537.235 98.2257 536.985 99.1557 536.785C98.3257 537.11 97.4536 537.315 96.5657 537.395V537.395Z" fill="#F6F6F6"/>
<path d="M114.196 533.665H114.426C113.956 533.845 114.006 533.785 114.196 533.665Z" fill="#F6F6F6"/>
<path d="M114.196 533.665C113.416 533.815 112.796 533.865 112.196 533.935C113.106 533.735 113.956 533.555 114.696 533.415C114.524 533.488 114.357 533.572 114.196 533.665V533.665Z" fill="#F6F6F6"/>
<path d="M78.4457 535.435C79.2854 535.762 80.1863 535.902 81.0857 535.845C81.8057 535.845 82.6257 535.845 83.4857 535.845C84.3457 535.845 85.2157 535.655 86.0557 535.505C89.4157 535.585 87.3357 537.025 84.4057 537.935C84.2957 537.765 84.2857 537.655 80.7957 537.485C81.4057 537.345 83.3257 537.235 84.7257 536.975C86.1257 536.715 87.0057 536.525 85.5357 536.435C84.2397 536.42 82.944 536.483 81.6557 536.625C81.0157 536.725 80.6557 536.865 79.5557 536.995C80.4957 536.735 79.0357 536.585 77.4657 536.415C75.8957 536.245 74.2157 535.935 74.7157 535.585C76.0557 535.695 77.3857 535.795 78.7157 535.835C78.7957 535.705 77.3457 535.555 78.4457 535.435Z" fill="#F6F6F6"/>
<path d="M91.0457 537.435L92.4857 537.335C91.6757 537.455 90.9757 537.595 90.2157 537.745C89.4557 537.895 88.6357 538.055 87.5657 538.275C85.1557 538.275 84.6457 538.115 84.4757 537.995C86.8357 537.805 89.1957 537.715 91.5457 537.445L91.0457 537.435Z" fill="#F6F6F6"/>
<path d="M98.8757 536.555C97.7057 536.355 94.2657 536.555 96.2957 535.835C100.456 535.275 99.2957 535.755 101.786 535.565C95.0357 536.505 103.786 535.505 98.9257 536.495C100.266 536.365 101.456 536.205 102.586 536.045C101.386 536.285 100.216 536.535 99.1257 536.785L99.2757 536.735C99.5657 536.635 99.6557 536.585 99.2757 536.665H99.1357C99.0356 536.601 98.9231 536.561 98.8057 536.545C96.8657 536.945 98.5157 536.705 99.1357 536.665C99.1357 536.665 99.2157 536.665 99.2257 536.715C96.9557 537.035 94.6757 537.135 92.4057 537.315C93.1257 537.205 93.9257 537.105 94.9557 537.005C95.9857 536.905 97.3157 536.805 98.8757 536.555Z" fill="#F6F6F6"/>
<path d="M131.126 525.545C130.936 525.655 130.956 525.685 130.956 525.715C130.526 525.815 130.356 525.835 131.126 525.545Z" fill="#F6F6F6"/>
<path d="M128.606 526.715C129.429 526.598 130.235 526.379 131.006 526.065C132.266 525.485 130.936 525.875 130.956 525.715C131.896 525.505 134.216 524.915 131.456 526.085L130.986 526.195C128.486 527.195 125.376 528.895 125.846 528.795C126.662 527.974 127.592 527.273 128.606 526.715V526.715Z" fill="#F6F6F6"/>
<path d="M113.876 532.375C112.026 532.765 110.216 533.275 108.346 533.535C109.256 533.235 110.166 532.905 111.056 532.535L110.966 532.785C114.046 531.865 113.446 532.305 113.876 532.375Z" fill="#F6F6F6"/>
<path d="M83.4757 538.275C83.7257 538.425 83.9857 538.545 84.2457 538.685C83.1357 538.545 82.0357 538.325 80.9357 538.145L83.4757 538.275Z" fill="#F6F6F6"/>
<path d="M76.0957 538.355L76.3657 538.755L74.4157 538.495L76.0957 538.355Z" fill="#F6F6F6"/>
<path d="M1.73569 529.795C-0.324313 529.665 -1.95431 529.505 -3.38431 529.325C-0.894308 529.425 1.14569 529.345 1.73569 529.795Z" fill="#F6F6F6"/>
<path d="M82.6657 467.505L82.8757 468.035C82.8257 468.035 82.7557 467.835 82.6657 467.505Z" fill="#F6F6F6"/>
<path d="M125.296 493.315C125.186 492.625 125.016 491.495 124.766 490.455C125.012 491.394 125.189 492.35 125.296 493.315V493.315Z" fill="#F6F6F6"/>
<path d="M46.5657 536.675C48.1057 536.875 46.8057 536.755 46.5657 536.675V536.675Z" fill="#F6F6F6"/>
<path d="M54.2457 535.745C53.9257 535.665 53.6857 535.585 53.6557 535.475C53.8252 535.615 54.0287 535.708 54.2457 535.745Z" fill="#F6F6F6"/>
<path d="M48.8757 536.745C48.2957 536.745 47.6257 536.695 46.8757 536.645C47.2457 536.645 47.8757 536.675 48.8757 536.745Z" fill="#F6F6F6"/>
<path d="M48.5757 536.915L49.8757 537.035C50.1157 537.115 49.9357 537.145 48.5757 536.915Z" fill="#F6F6F6"/>
<path d="M44.4157 536.405C45.2957 536.515 46.1257 536.585 46.9257 536.645C46.6157 536.645 46.4857 536.645 46.5657 536.645L44.4157 536.405Z" fill="#F6F6F6"/>
<path d="M-0.124307 380.035L0.1957 380.105C1.6157 380.725 0.985693 380.475 -0.124307 380.035Z" fill="#F6F6F6"/>
<path d="M-78.7943 483.755C-79.2843 485.005 -79.7243 486.275 -80.2543 487.525C-77.4143 483.525 -76.3043 480.105 -77.3143 483.815C-78.0643 483.815 -79.7543 487.325 -81.7843 490.715L-83.7843 493.775C-84.6843 495.045 -85.5743 496.205 -86.3343 497.175C-86.9173 497.935 -87.5381 498.666 -88.1943 499.365C-88.6543 499.825 -88.9243 500.015 -88.9743 499.675L-89.0543 499.765L-91.2543 496.565C-90.5843 497.645 -90.5143 497.945 -89.8643 499.035C-90.4343 498.225 -90.8643 497.455 -91.3543 496.785C-91.8443 496.115 -92.1843 495.505 -92.4943 494.955C-92.8043 494.405 -93.0643 493.955 -93.2943 493.455C-93.3961 493.206 -93.5164 492.965 -93.6543 492.735C-93.7643 492.535 -93.7743 492.475 -93.8443 492.335C-94.088 491.739 -94.3789 491.164 -94.7143 490.615C-94.9978 490.232 -95.3016 489.865 -95.6243 489.515L-96.2343 488.855C-96.4743 488.625 -96.7443 488.405 -97.0443 488.165C-97.3443 487.925 -97.8443 487.535 -98.1743 487.295C-98.5043 487.055 -98.8243 486.905 -99.0343 486.795C-99.4443 486.595 -99.4943 486.665 -98.9743 487.155C-100.147 486.105 -101.386 485.133 -102.684 484.245C-103.904 483.595 -103.684 483.965 -102.514 484.615C-104.574 483.367 -106.735 482.293 -108.974 481.405V481.465C-109.434 481.195 -110.184 480.795 -110.974 480.395C-111.764 479.995 -112.594 479.675 -113.134 479.395C-114.984 479.105 -112.264 479.775 -112.774 479.825C-113.404 479.575 -114.054 479.375 -114.704 479.175C-115.354 478.975 -116.004 478.755 -116.704 478.605C-117.564 478.605 -117.164 478.885 -116.214 479.175C-115.264 479.465 -113.794 479.865 -112.464 480.255C-113.84 480.418 -115.234 480.24 -116.524 479.735C-118.865 478.994 -121.331 478.736 -123.774 478.975C-122.524 479.105 -121.274 479.185 -120.034 479.415C-121.397 479.628 -122.775 479.735 -124.154 479.735C-125.986 479.771 -127.811 479.952 -129.614 480.275C-129.124 480.095 -127.024 479.675 -125.554 479.365C-124.084 479.055 -123.254 478.745 -125.454 478.555C-127.207 478.705 -128.967 478.748 -130.724 478.685C-130.724 479.165 -133.024 479.255 -135.914 479.685L-135.614 480.285C-137.219 480.452 -138.833 480.505 -140.444 480.445C-143.884 481.325 -144.444 482.055 -145.134 482.665C-150.544 484.385 -141.594 480.755 -148.134 482.585C-152.594 484.265 -155.814 485.165 -161.304 486.945C-164.304 488.405 -160.614 487.085 -161.664 487.705L-164.664 488.365C-165.334 488.655 -165.054 488.705 -164.914 488.735C-167.314 489.525 -165.354 488.225 -169.074 489.605C-170.354 489.375 -176.074 493.765 -180.824 495.215C-181.824 495.905 -180.134 495.315 -180.354 495.695C-183.474 496.925 -184.794 497.515 -185.984 498.005L-190.624 500.035C-191.958 500.921 -193.241 501.828 -194.474 502.755C-191.744 500.595 -195.844 502.285 -199.374 504.005C-198.464 503.135 -197.674 502.415 -197.114 502.005C-198.948 502.985 -200.758 504.011 -202.544 505.085C-203.104 505.595 -202.464 505.425 -201.464 505.085L-202.464 505.595C-203.374 506.345 -203.464 506.595 -203.174 506.595C-202.595 506.503 -202.03 506.335 -201.494 506.095L-199.854 504.535C-198.364 504.025 -196.924 503.645 -196.994 504.125C-197.614 504.399 -198.215 504.713 -198.794 505.065C-198.394 504.935 -198.134 504.885 -198.254 505.065C-198.783 505.399 -199.351 505.667 -199.944 505.865L-200.704 507.245H-201.144L-201.524 507.535L-201.744 507.715L-202.144 508.065L-202.874 508.715L-202.954 508.785C-202.954 508.785 -202.904 508.865 -202.884 508.895L-202.714 509.105L-202.384 509.515C-202.192 509.775 -201.974 510.016 -201.734 510.235C-201.734 510.325 -201.494 510.655 -201.324 510.935C-201.165 511.225 -200.985 511.502 -200.784 511.765L-199.554 513.345C-199.134 513.885 -198.614 514.345 -198.124 514.845C-197.612 515.377 -197.053 515.862 -196.454 516.295C-193.479 518.571 -190.053 520.187 -186.404 521.035C-188.504 520.035 -186.674 520.105 -186.664 519.475C-187.397 519.481 -188.127 519.37 -188.824 519.145C-189.224 519.025 -189.654 518.895 -190.084 518.745L-191.404 518.165C-193.347 517.248 -195.234 516.216 -197.054 515.075C-195.054 516.205 -195.314 515.685 -195.764 515.295C-194.675 516.056 -193.535 516.744 -192.354 517.355C-191.132 517.948 -189.88 518.479 -188.604 518.945C-188.604 518.675 -188.174 518.705 -187.474 518.845C-186.774 518.985 -185.764 519.145 -184.704 519.275C-185.144 519.435 -185.004 519.635 -184.494 519.865C-183.673 520.127 -182.834 520.33 -181.984 520.475C-180.914 520.655 -179.674 520.785 -178.494 520.925C-177.314 521.065 -176.174 521.135 -175.324 521.225C-175.104 520.875 -175.914 520.605 -180.014 520.315C-179.047 520.262 -178.077 520.288 -177.114 520.395C-176.284 520.505 -175.564 520.705 -174.834 520.855C-174.078 521.048 -173.31 521.188 -172.534 521.275C-171.569 521.347 -170.598 521.3 -169.644 521.135C-170.311 521.22 -170.987 521.193 -171.644 521.055C-170.041 521.168 -168.431 521.135 -166.834 520.955C-165.254 520.775 -164.164 520.545 -164.834 520.455L-165.834 520.535C-162.494 520.215 -157.264 519.605 -152.734 519.425C-148.204 519.245 -144.374 519.475 -143.864 519.915C-143.794 519.805 -144.764 518.915 -145.194 518.715C-141.061 519.58 -137.036 520.901 -133.194 522.655C-133.644 522.185 -132.774 521.745 -132.464 521.225C-132.304 520.965 -132.284 520.685 -132.674 520.355C-132.953 520.141 -133.259 519.966 -133.584 519.835C-134.143 519.637 -134.714 519.476 -135.294 519.355C-134.285 519.417 -133.282 519.557 -132.294 519.775C-131.704 519.915 -131.064 520.035 -130.354 520.255C-129.644 520.475 -128.884 520.775 -128.034 521.095C-129.214 520.845 -131.104 521.265 -129.624 521.785C-128.826 521.844 -128.034 521.965 -127.254 522.145C-126.694 522.265 -126.254 522.375 -125.864 522.495C-125.337 522.637 -124.819 522.814 -124.314 523.025L-123.134 523.475C-122.575 523.67 -122.031 523.904 -121.504 524.175C-122.304 523.765 -122.414 524.075 -122.054 524.665C-121.81 525.032 -121.521 525.368 -121.194 525.665C-120.994 525.851 -120.774 526.041 -120.534 526.235C-120.302 526.461 -120.059 526.674 -119.804 526.875C-120.034 526.475 -118.924 526.125 -119.654 525.385C-118.864 526.285 -118.034 527.115 -117.324 528.035C-116.614 528.955 -115.984 529.865 -115.324 530.765C-116.324 529.455 -114.834 529.915 -113.614 530.665C-113.914 530.505 -112.944 531.515 -111.734 532.425C-110.717 533.201 -109.573 533.796 -108.354 534.185C-109.112 534.066 -109.851 533.851 -110.554 533.545C-109.472 534.125 -108.319 534.561 -107.124 534.845C-106.246 535.071 -105.354 535.238 -104.454 535.345C-102.049 535.584 -99.6251 535.147 -97.4543 534.085C-98.3743 534.195 -99.9843 533.585 -96.6543 532.085C-95.7743 531.995 -93.6543 531.915 -91.1243 531.645C-89.8243 531.535 -88.4443 531.255 -86.9343 531.105C-85.379 530.917 -83.8363 530.636 -82.3143 530.265C-81.9543 530.035 -81.5843 529.805 -81.2143 529.605L-76.3443 528.745C-77.1343 528.745 -78.2843 528.745 -79.6343 528.745L-81.8143 528.815C-82.5743 528.875 -83.3643 528.965 -84.1643 529.045C-85.7743 529.225 -87.4543 529.395 -89.0143 529.635C-90.5743 529.875 -92.0143 530.235 -93.2043 530.515C-90.6643 529.255 -92.6243 529.835 -88.6343 528.375C-87.9743 528.005 -88.5643 528.045 -89.4643 528.295C-90.3643 528.545 -91.5543 528.975 -92.1443 529.185C-89.1443 527.835 -85.9343 526.895 -82.8043 525.795C-83.0443 526.565 -75.3143 524.545 -75.5543 525.235C-79.0543 525.865 -82.5543 526.445 -86.0443 527.395C-86.1543 527.785 -84.5343 527.745 -82.0443 527.395C-80.8043 527.265 -79.3543 527.065 -77.7943 526.785L-75.3943 526.315C-74.5643 526.175 -73.7243 526.015 -72.8843 525.835C-71.2143 525.225 -74.4143 524.915 -74.3243 524.665C-73.0826 524.6 -71.8466 524.453 -70.6243 524.225C-69.0243 523.935 -67.4543 523.805 -67.1543 523.655C-68.1543 523.655 -69.1543 523.655 -70.1543 523.755C-68.4505 523.402 -66.7142 523.231 -64.9743 523.245C-63.0503 523.193 -61.1353 522.962 -59.2543 522.555C-58.243 522.377 -57.2416 522.147 -56.2543 521.865C-55.2543 521.645 -54.3743 521.495 -54.2543 521.685C-56.8243 522.595 -57.1143 525.015 -55.3743 525.465L-50.8443 524.775C-48.6443 524.415 -46.2543 524.185 -45.3543 523.955C-42.7543 523.305 -49.3043 522.585 -47.0943 522.035C-46.4007 522.29 -45.6724 522.438 -44.9343 522.475C-43.2643 522.305 -45.6343 521.895 -41.9943 521.975C-41.3843 522.665 -34.5943 522.035 -40.2743 522.575C-36.7243 522.825 -36.4943 522.475 -32.3343 522.715C-33.6743 523.085 -28.6743 524.355 -25.1743 524.855C-25.3743 524.665 -24.5643 524.505 -24.1743 524.425C-16.9543 524.985 -13.0443 525.105 -6.34431 525.965C-5.70431 525.885 -2.44432 526.115 -3.78432 525.645C-2.51828 526.042 -1.2248 526.346 0.0856934 526.555C4.16569 526.555 -4.50432 525.805 -1.36432 525.555C-1.15432 525.995 3.90568 526.855 6.79568 527.555C5.79568 528.005 -0.00430655 526.655 -2.91431 526.005C-3.04431 526.845 1.95568 528.405 8.85568 529.875C14.3657 530.945 11.3457 529.715 12.2857 529.985C22.7157 531.465 20.9257 532.835 29.6857 533.545C33.2057 533.545 29.9957 532.545 30.8157 532.235C26.3257 531.355 23.8157 531.535 20.7657 531.035L24.5757 531.365C22.5852 530.835 20.5553 530.468 18.5057 530.265C21.4557 530.265 36.1057 532.935 44.2357 533.415C45.6457 533.755 48.1057 534.225 46.9057 534.305L44.3657 533.945C41.9557 534.105 49.1057 535.085 45.8457 534.945C49.8145 535.91 53.866 536.496 57.9457 536.695L58.9457 536.145C58.3517 536.275 57.7405 536.309 57.1357 536.245C56.2157 536.22 55.2992 536.12 54.3957 535.945C56.3957 536.445 61.9057 535.705 64.0657 536.655L60.6357 536.845C62.3557 537.135 64.2857 537.505 66.3357 537.755C68.4506 538.068 70.5884 538.198 72.7257 538.145C70.7257 538.705 71.7257 538.145 68.6157 538.685C69.9657 538.305 67.1857 538.195 64.6157 538.085C62.0457 537.975 59.6757 537.745 61.8457 537.445C60.3694 537.693 58.8707 537.78 57.3757 537.705C55.644 537.599 53.9074 537.599 52.1757 537.705C52.3257 537.515 53.6757 537.465 50.0357 537.215C49.7859 537.106 49.5285 537.016 49.2657 536.945V536.945C49.1057 536.895 49.0957 536.885 49.3357 536.945C49.9649 536.976 50.5956 536.936 51.2157 536.825C49.4657 536.185 43.7257 535.565 41.8257 535.055C39.6757 534.875 42.6857 535.395 41.4957 535.465L38.6557 534.725C38.3057 535.145 32.8857 534.725 37.8757 535.645C36.3657 535.465 34.8757 535.235 33.3557 535.035C30.4678 534.896 27.5954 534.528 24.7657 533.935C22.6257 533.705 19.4857 532.605 21.2757 533.245L14.2757 531.865L14.1957 531.965C7.24569 530.965 0.0156927 528.965 -8.02431 528.785C-10.8842 528.244 -13.7721 527.864 -16.6743 527.645L-17.4843 527.955C-18.9743 527.745 -21.2343 527.615 -23.2743 527.505C-24.7886 527.509 -26.2994 527.361 -27.7843 527.065C-29.4343 527.435 -33.0643 527.335 -36.9543 527.135L-42.7543 526.925C-44.5943 526.925 -46.2843 526.925 -47.6043 527.005L-47.8143 526.505C-49.6243 526.505 -51.3943 526.645 -53.2743 526.675C-54.2243 526.675 -55.1943 526.675 -56.2043 526.745L-59.4043 526.925L-59.1743 526.455C-60.2742 526.466 -61.3727 526.54 -62.4643 526.675C-63.6643 526.855 -64.9643 527.095 -66.3343 527.355C-69.0743 527.805 -72.0143 528.675 -75.0243 529.215C-74.0027 529.165 -72.9929 528.973 -72.0243 528.645C-72.8943 528.945 -73.7843 529.205 -74.6843 529.435C-75.5843 529.665 -76.4843 529.955 -77.4043 530.175C-79.2243 530.655 -81.1143 530.945 -82.9243 531.465C-84.7343 531.985 -86.5743 532.335 -88.2743 532.945C-89.9113 533.502 -91.5083 534.17 -93.0543 534.945C-94.3704 535.348 -95.6434 535.88 -96.8543 536.535L-96.4443 536.395L-97.1043 536.675C-97.7943 537.025 -98.5143 537.395 -99.3343 537.755C-98.6543 537.405 -98.0143 537.075 -97.4643 536.815C-99.2027 537.493 -101.01 537.98 -102.854 538.265C-103.134 538.475 -103.404 538.695 -103.694 538.895L-104.214 538.945C-106.444 539.295 -105.994 538.815 -104.854 538.415C-105.84 538.427 -106.823 538.303 -107.774 538.045C-109.12 538.209 -110.481 537.89 -111.614 537.145C-113.014 536.405 -114.194 535.385 -115.334 534.955C-115.774 534.355 -117.524 532.475 -119.044 530.785C-120.564 529.095 -122.284 527.705 -122.494 527.115C-122.614 527.175 -123.094 526.925 -122.264 527.465C-123.154 526.955 -124.024 526.405 -124.934 525.995C-125.384 525.775 -125.814 525.545 -126.234 525.305C-126.654 525.065 -127.104 524.885 -127.514 524.655L-128.514 524.905C-129.144 524.485 -129.844 524.195 -130.514 523.825C-131.194 523.451 -131.895 523.117 -132.614 522.825C-133.509 522.686 -134.42 522.686 -135.314 522.825C-135.634 522.945 -135.244 523.155 -133.964 523.625C-135.837 523.053 -137.753 522.635 -139.694 522.375C-140.924 522.265 -142.004 522.075 -144.874 521.725L-144.604 522.115C-146.604 522.115 -149.944 521.705 -151.174 522.115C-152.404 522.525 -154.304 522.615 -156.834 522.905C-159.364 523.195 -162.414 523.545 -165.834 523.815C-172.724 524.396 -179.657 524.172 -186.494 523.145C-185.204 522.815 -186.634 522.685 -188.424 522.405C-189.314 522.235 -190.304 522.055 -191.074 521.825C-191.844 521.595 -192.394 521.285 -192.424 521.035C-193.204 521.035 -194.924 520.565 -193.094 521.505C-193.844 521.215 -194.524 520.855 -195.174 520.505C-195.824 520.155 -196.464 519.935 -197.024 519.585C-198.091 519.027 -199.123 518.406 -200.114 517.725C-201.023 517.135 -201.861 516.444 -202.614 515.665C-202.994 515.275 -203.354 514.885 -203.714 514.465C-204.051 514.011 -204.358 513.537 -204.634 513.045C-205.344 512.635 -204.024 514.415 -204.584 513.995L-204.904 513.515L-205.144 513.165L-205.504 512.685C-206.024 512.055 -206.404 511.345 -206.784 510.935C-207.164 510.525 -207.004 510.845 -206.674 511.455C-206.49 511.819 -206.286 512.173 -206.064 512.515L-205.304 513.515C-205.707 513.052 -206.084 512.568 -206.434 512.065L-207.294 510.655C-207.814 509.761 -208.254 508.991 -208.614 508.345L-208.874 507.865C-208.934 507.725 -209.124 507.555 -208.874 507.485L-208.014 506.965C-207.474 506.655 -207.014 506.405 -206.624 506.215C-205.044 505.465 -204.444 505.535 -203.904 505.645L-202.844 504.775L-202.064 504.155C-201.606 503.791 -201.125 503.457 -200.624 503.155C-199.701 502.598 -198.718 502.145 -197.694 501.805C-196.884 501.005 -195.454 499.805 -198.824 501.805C-197.904 501.205 -195.104 499.355 -192.384 497.805C-189.664 496.255 -187.114 495.005 -186.864 495.235C-185.843 494.575 -184.754 494.029 -183.614 493.605C-179.224 491.405 -178.854 491.175 -174.444 489.235L-175.624 489.875C-173.574 489.795 -171.904 488.395 -168.294 486.965H-168.424C-166.561 485.958 -164.622 485.098 -162.624 484.395C-160.651 483.693 -158.724 482.868 -156.854 481.925L-157.134 482.535C-156.024 483.215 -150.044 479.235 -144.934 478.295L-146.644 479.055C-144.904 478.622 -143.224 477.974 -141.644 477.125C-140.724 476.705 -139.804 476.285 -138.944 475.915C-138.168 475.59 -137.37 475.323 -136.554 475.115C-135.954 474.915 -137.554 475.115 -138.414 475.255C-137.325 474.911 -136.207 474.664 -135.074 474.515C-134.544 474.515 -134.464 474.515 -134.444 474.685C-134.424 474.855 -134.594 475.275 -131.814 475.035C-131.324 474.805 -131.674 474.625 -131.684 474.445C-131.694 474.265 -131.354 474.065 -129.454 473.895C-127.155 473.718 -124.844 473.805 -122.564 474.155C-119.364 474.485 -115.864 475.155 -113.254 475.505C-114.444 475.505 -115.584 475.505 -113.084 476.275C-112.084 476.515 -110.984 476.815 -109.744 477.095C-108.504 477.375 -107.214 477.745 -105.954 478.205C-104.722 478.623 -103.522 479.131 -102.364 479.725C-101.393 480.229 -100.492 480.857 -99.6843 481.595C-99.2143 481.815 -99.0143 481.865 -98.9643 481.825C-98.3343 482.285 -97.5143 482.825 -96.6643 483.615C-95.7489 484.353 -94.8774 485.145 -94.0543 485.985C-93.2857 486.77 -92.5581 487.595 -91.8743 488.455C-91.4339 489.049 -91.0362 489.674 -90.6843 490.325C-89.9043 490.515 -89.2743 491.155 -88.6843 492.325C-88.6843 492.325 -88.6343 492.435 -88.6143 492.435L-88.5243 492.325L-88.3543 492.105L-87.9943 491.675C-87.7443 491.375 -87.4743 491.085 -87.2143 490.755L-86.8243 490.245L-86.6243 489.985L-86.3343 489.575C-85.9343 488.995 -85.5243 488.455 -85.2043 487.905C-84.6476 487.017 -84.1401 486.099 -83.6843 485.155C-83.3943 484.425 -83.3243 483.945 -83.5643 483.835C-82.8943 482.515 -82.2143 481.195 -81.6343 479.835C-81.0543 478.475 -80.4343 477.115 -79.8743 475.725L-80.1043 475.885C-79.0685 472.779 -77.7671 469.768 -76.2143 466.885C-75.9043 465.575 -76.3343 466.465 -76.4443 466.545C-74.1743 458.405 -73.9443 457.545 -71.0643 451.005L-71.3143 450.145C-70.8743 449.265 -70.1443 446.265 -68.9543 442.535C-67.7131 438.412 -66.037 434.433 -63.9543 430.665C-64.0343 430.665 -64.1943 430.825 -64.5543 431.405C-62.2643 427.225 -59.8243 422.085 -57.3843 417.785C-54.9443 413.485 -52.5843 410.035 -50.8743 409.125C-49.5543 407.515 -48.2343 405.915 -46.8743 404.345C-51.4743 410.925 -45.5543 403.825 -47.2443 406.675C-45.3143 404.195 -42.8143 399.825 -45.2443 402.865L-45.5343 403.405C-46.3443 403.695 -44.9243 401.635 -43.3443 399.515C-41.7643 397.395 -40.0443 395.195 -40.3443 395.085L-33.1243 385.785L-29.4843 381.245C-28.2253 379.647 -26.8228 378.167 -25.2943 376.825C-23.6522 375.411 -21.7354 374.352 -19.6643 373.715C-17.6277 373.136 -15.5077 372.906 -13.3943 373.035C-11.4027 373.164 -9.42754 373.479 -7.49431 373.975C-6.49431 374.205 -5.62431 374.455 -4.71431 374.725L-2.04431 375.635L-3.89432 375.765L1.03569 377.425C2.37569 377.705 2.96568 377.485 -0.564316 376.295C0.704211 376.554 1.92967 376.992 3.07568 377.595C3.8563 377.919 4.57904 378.369 5.21568 378.925C12.0257 381.515 2.91569 377.025 4.97569 377.925L7.75569 379.175L7.08569 378.985C8.16569 379.605 8.72568 379.985 9.52568 380.475C9.92568 380.705 10.3857 380.955 11.0057 381.255C11.6257 381.555 12.4157 381.855 13.4057 382.385C15.9857 383.535 14.8957 382.635 15.8957 383.125C15.8957 383.075 16.2657 383.225 17.4257 383.885C19.4257 384.885 21.3757 385.815 23.2357 386.975C22.3857 386.695 21.5457 386.395 20.6957 386.135C23.0557 387.865 25.9857 389.285 23.0757 388.285C24.8544 388.995 26.5761 389.841 28.2257 390.815C30.4057 392.135 32.8457 393.875 35.2757 395.545C36.5157 396.355 37.6157 397.325 38.6957 398.175L41.6957 400.595C42.5957 401.335 43.4257 401.935 44.0357 402.475C44.6457 403.015 45.1157 403.415 45.3957 403.615C46.7557 405.135 48.1757 406.615 49.7157 408.045C51.2557 409.475 52.7157 411.185 54.5057 412.945C53.5657 412.135 52.5857 412.055 55.5957 415.065C55.5957 412.945 61.1757 420.565 64.0757 422.695C61.7257 420.595 71.2157 432.615 67.5757 429.225C68.1457 429.915 68.4257 430.285 68.5757 430.445C68.7257 430.605 68.8057 430.565 68.8557 430.505C68.9057 430.445 69.0057 430.135 69.8557 431.195C70.8557 433.055 72.0757 434.965 73.3357 436.915C74.5957 438.865 75.7457 441.035 77.0257 443.135C78.3274 445.312 79.5156 447.555 80.5857 449.855C81.159 451.015 81.729 452.185 82.2957 453.365C82.8457 454.555 83.2957 455.805 83.7457 457.035C83.6357 457.255 82.7457 455.715 83.3257 457.915C84.2557 459.535 85.2357 461.155 86.1457 462.805C86.6857 464.805 85.7557 464.955 87.4657 468.415C87.1657 467.945 86.7157 467.245 87.0757 468.595C87.4357 469.945 87.9757 471.015 88.3057 472.265C88.6357 473.515 88.9557 474.785 89.3057 476.045L89.8757 478.325L89.9457 478.595C89.9457 478.665 89.9457 478.825 90.0757 478.755C90.2552 478.734 90.4325 478.697 90.6057 478.645C90.9486 478.558 91.2832 478.441 91.6057 478.295C91.9506 478.148 92.2847 477.978 92.6057 477.785C93.0157 477.545 93.6057 477.175 94.0757 476.845C95.0757 476.155 96.0757 475.365 97.0757 474.555C99.0909 472.785 101.211 471.138 103.426 469.625C104.672 468.808 106.049 468.21 107.496 467.855C109.077 467.505 110.726 467.616 112.246 468.175C113.71 468.743 115.014 469.66 116.046 470.845C116.975 471.929 117.786 473.109 118.466 474.365C119.766 476.725 120.956 479.125 122.026 481.585C123.096 484.045 124.026 486.585 124.846 489.145C123.776 486.415 124.286 488.295 124.746 490.455C124.346 489.065 124.326 490.575 124.036 490.355C124.906 493.201 125.574 496.105 126.036 499.045C125.889 499.772 125.838 500.515 125.886 501.255C125.886 502.255 125.886 503.405 125.886 504.555C125.886 505.135 125.886 505.705 125.886 506.235C125.886 506.765 125.816 507.285 125.766 507.725C125.763 508.338 125.623 508.943 125.356 509.495C125.506 508.575 125.556 507.635 125.656 506.705C125.166 508.545 124.866 507.205 124.466 505.535C124.066 503.865 123.526 501.835 123.066 502.115C123.416 500.115 122.936 497.435 122.186 494.575C121.293 491.533 120.581 488.441 120.056 485.315C119.436 483.995 120.136 486.585 119.686 485.915C119.576 484.225 119.016 482.255 117.306 478.915L117.386 479.345C116.533 477.27 115.449 475.297 114.156 473.465C113.637 472.795 113.012 472.214 112.306 471.745C111.646 471.362 110.914 471.12 110.156 471.035C108.48 470.942 106.828 471.469 105.516 472.515C103.495 474.008 101.564 475.621 99.7357 477.345L100.116 476.405C98.1657 478.135 97.7957 478.605 96.8457 479.465C95.3557 480.085 96.9457 478.975 98.3957 477.765C99.8457 476.555 101.246 475.305 99.9657 475.885C99.0452 477.064 97.9802 478.122 96.7957 479.035C96.4057 479.345 95.9857 479.665 95.5357 479.975C95.3157 480.135 95.0757 480.285 94.8357 480.435L94.4757 480.665L93.9957 480.935C92.6705 481.69 91.2371 482.236 89.7457 482.555C89.3757 482.635 89.0257 482.725 88.6457 482.785L88.0957 482.885L87.8157 482.935C87.8157 482.935 87.7057 482.935 87.6857 482.935V482.805L87.0157 480.805C86.7919 480.148 86.6016 479.481 86.4457 478.805L86.1857 477.805L85.9657 476.985C85.7048 475.785 85.2631 474.632 84.6557 473.565C84.5154 473.073 84.4118 472.572 84.3457 472.065C84.3457 471.925 84.4557 472.065 84.5657 472.155C84.6757 472.245 85.0057 472.635 84.4157 470.765L83.8257 469.865L83.8757 468.725C83.0557 466.285 82.3157 465.175 82.0557 465.165C82.2657 465.745 82.5057 466.865 82.6857 467.505C81.5257 464.405 79.6057 458.695 79.1257 457.655L80.6557 461.085L79.2457 457.245C78.9857 456.595 78.7657 455.915 78.4757 455.245L77.5757 453.295L75.7257 449.295L74.7857 447.295L73.7257 445.365L71.6057 441.525L70.6057 439.615C70.2557 438.985 69.8557 438.385 69.4857 437.785C68.7557 436.565 68.0257 435.375 67.3157 434.205L66.3157 432.465L65.8157 431.595L65.2857 430.785L65.9357 431.285C64.6372 429.258 63.218 427.311 61.6857 425.455C60.6857 424.125 59.3657 422.885 56.6857 419.455L56.8557 419.725C56.3757 418.995 55.7857 418.165 55.1157 417.285C54.4457 416.405 53.6057 415.595 52.7757 414.745C54.1057 416.495 49.5557 412.125 51.3357 414.395C49.9357 412.775 49.0657 411.765 48.4957 411.075C47.9257 410.385 47.6157 410.075 47.4057 409.795C46.6869 408.701 45.9021 407.653 45.0557 406.655L43.8357 406.045C43.2357 405.265 42.9357 404.815 42.3857 404.185C41.4175 403.198 40.3889 402.273 39.3057 401.415C41.8957 403.895 36.7857 400.125 39.6357 402.945C37.9646 401.84 36.3524 400.648 34.8057 399.375C33.4257 398.305 32.1957 397.375 31.1157 396.535C28.9357 394.845 27.2757 393.445 25.1157 392.935C23.6057 391.425 25.3657 392.315 27.2757 393.415C29.1857 394.515 31.0557 396.075 30.1657 395.315C31.0557 395.735 30.4657 395.085 29.3357 394.135C28.7557 393.665 28.0857 393.075 27.3357 392.585C26.5857 392.095 25.8457 391.645 25.2157 391.295C22.6657 389.855 20.3857 389.695 13.8757 386.455C14.5257 386.785 14.5357 386.875 15.1757 387.205C13.9205 386.655 12.7043 386.02 11.5357 385.305C10.1898 384.58 8.77219 383.997 7.30568 383.565C5.82568 382.265 3.30569 381.895 3.09569 380.945L9.19569 383.755C7.39569 383.035 5.81569 382.035 3.87569 381.035C1.54509 379.891 -0.89803 378.993 -3.41431 378.355C-2.35514 378.985 -1.25617 379.547 -0.124313 380.035C-1.93431 379.665 -3.41432 378.735 -5.28432 378.345C-5.14432 378.815 -3.28431 379.515 -0.904312 380.345C0.255688 380.755 1.52569 381.195 2.73569 381.655C3.81016 382.124 4.85836 382.652 5.87569 383.235C4.5114 382.748 3.17592 382.184 1.87569 381.545C0.555687 381.015 -0.304308 380.705 0.505692 381.435C-0.963411 380.423 -2.60815 379.694 -4.34431 379.285C-6.34431 378.645 -8.47431 378.135 -10.7143 377.285L-10.5043 377.805C-11.6159 377.411 -12.7709 377.152 -13.9443 377.035C-13.1643 377.275 -12.3843 377.595 -11.6243 377.915C-13.2989 377.404 -15.0782 377.342 -16.7843 377.735C-18.2774 378.113 -19.7158 378.681 -21.0643 379.425C-20.2098 378.912 -19.3092 378.48 -18.3743 378.135C-17.9143 377.965 -17.8643 377.875 -17.9443 377.795C-18.0243 377.715 -18.7643 377.525 -17.3243 377.065C-18.8733 377.159 -20.3641 377.689 -21.6243 378.595C-22.284 379.097 -22.8523 379.71 -23.3043 380.405C-24.8615 382.814 -26.5963 385.104 -28.4943 387.255C-27.8222 386.462 -27.2009 385.627 -26.6343 384.755C-26.1243 383.985 -25.9543 383.555 -26.7843 384.375C-28.0635 386.036 -29.2519 387.765 -30.3443 389.555C-35.1143 395.245 -29.9943 388.355 -32.2243 390.625C-33.3643 392.955 -34.7143 393.305 -36.8743 395.735L-36.5143 396.055C-41.5143 402.885 -38.7243 397.175 -43.0543 403.435L-40.5743 401.295L-43.1143 404.295L-42.1843 403.975C-44.4361 406.392 -46.427 409.04 -48.1243 411.875C-47.8343 410.875 -49.1743 411.805 -51.2543 414.875C-52.4043 417.165 -50.1143 413.925 -53.0243 418.325C-51.7561 417.299 -50.7601 415.977 -50.1243 414.475C-49.8743 414.365 -49.2243 413.665 -48.9543 413.555C-49.7 414.932 -50.5213 416.268 -51.4143 417.555L-53.6443 420.935C-53.2743 420.315 -52.8243 419.555 -52.6443 419.145C-53.4243 420.145 -54.1843 421.145 -54.9143 422.215C-55.6443 423.285 -56.4143 424.275 -57.1143 425.345C-57.5343 426.475 -56.9443 425.715 -56.3643 424.965C-57.1443 426.295 -57.9043 427.095 -58.9643 429.095C-58.3243 428.765 -58.0943 429.095 -56.3743 426.355C-57.0243 427.355 -57.6643 428.355 -58.2743 429.425C-58.8843 430.495 -59.5143 431.485 -60.0843 432.545C-60.1343 433.055 -61.2343 436.075 -60.7043 435.285C-62.1443 438.965 -65.1543 444.005 -66.5143 449.215C-66.8508 449.79 -67.1225 450.4 -67.3243 451.035C-68.7843 455.855 -69.5743 460.315 -71.9243 465.945C-72.0543 467.105 -72.1643 468.275 -72.3243 469.445C-74.0043 473.925 -71.6543 464.735 -74.4643 472.175C-76.6043 477.395 -74.6143 474.365 -75.1243 476.295C-77.2925 480.066 -79.2489 483.956 -80.9843 487.945C-80.1772 486.59 -79.4461 485.191 -78.7943 483.755V483.755ZM-125.244 478.595L-123.124 478.845C-122.499 478.955 -121.859 478.955 -121.234 478.845C-122.414 478.255 -123.394 478.425 -125.244 478.595ZM-203.874 509.035C-203.874 508.795 -204.384 508.425 -203.824 508.205C-203.472 507.891 -203.138 507.558 -202.824 507.205C-203.174 507.425 -203.534 507.675 -203.894 507.945C-204.073 508.074 -204.243 508.215 -204.404 508.365L-203.874 509.035ZM29.7557 534.035H29.6457C27.1157 533.825 28.0157 533.885 29.7557 534.035ZM34.9757 534.565C35.4857 534.715 35.4457 534.775 35.2157 534.805C34.288 534.544 33.3366 534.377 32.3757 534.305C33.2521 534.244 34.1324 534.339 34.9757 534.585V534.565ZM16.3457 383.565L15.3457 383.215C17.3757 384.365 16.8757 383.955 16.3457 383.535V383.565Z" fill="#F6F6F6"/>
<path d="M62.6057 538.335L59.2457 537.975C60.2432 538.063 61.2455 538.083 62.2457 538.035C62.2057 538.135 61.5557 538.255 62.6057 538.335Z" fill="#F6F6F6"/>
<path d="M91.7957 535.035C92.2857 535.035 92.7957 534.935 93.3057 534.945L93.1957 535.175C91.1257 535.395 89.6557 535.365 91.7957 535.035Z" fill="#F6F6F6"/>
<path d="M65.8157 536.895C66.1057 536.505 68.1957 536.745 70.5557 536.895H70.1357C70.8157 537.495 68.3057 537.195 65.8157 536.895Z" fill="#F6F6F6"/>
<path d="M71.0957 536.925C71.8257 536.925 72.5657 536.975 73.2757 536.925C73.5557 537.195 72.3957 537.035 71.0957 536.925Z" fill="#F6F6F6"/>
<path d="M41.5357 535.735C42.6557 535.735 42.1657 536.345 42.8157 536.255C43.9857 536.935 35.5057 534.675 41.5357 535.735Z" fill="#F6F6F6"/>
<path d="M67.7857 535.645L66.9157 536.105L65.6257 535.645H67.7857Z" fill="#F6F6F6"/>
<path d="M49.2857 534.615C50.5357 534.725 51.7857 534.775 53.0357 534.845C52.9657 534.925 53.4357 535.025 54.0357 535.115C52.4417 535.073 50.8535 534.905 49.2857 534.615V534.615Z" fill="#F6F6F6"/>
<path d="M54.0157 535.115C55.0213 535.182 56.0227 535.302 57.0157 535.475C56.3657 535.415 54.9757 535.265 54.0157 535.115Z" fill="#F6F6F6"/>
<path d="M62.6757 535.245L61.5657 535.275L58.9257 535.125L62.6757 535.245Z" fill="#F6F6F6"/>
<path d="M9.40568 529.035L5.40568 528.275C5.02568 528.045 6.13568 528.115 7.63568 528.405C8.56568 528.655 10.0557 528.955 9.40568 529.035Z" fill="#F6F6F6"/>
<path d="M21.8257 529.575C21.2107 529.523 20.5914 529.557 19.9857 529.675V529.035L21.8257 529.575Z" fill="#F6F6F6"/>
<path d="M10.0757 527.585C9.69569 527.355 4.27569 526.195 9.40569 527.025C9.78569 527.255 13.8157 528.035 10.0757 527.585Z" fill="#F6F6F6"/>
<path d="M126.746 505.035C126.826 506.115 126.826 507.195 126.826 508.285L126.606 506.175L126.746 505.035Z" fill="#F6F6F6"/>
<path d="M125.606 511.155C125.796 511.425 125.966 511.705 126.146 511.985L125.296 513.815C125.494 512.942 125.598 512.05 125.606 511.155V511.155Z" fill="#F6F6F6"/>
<path d="M132.102 810.535C130.035 797.482 132.264 784.112 138.451 772.435C139.611 770.255 141.022 768.025 143.242 766.935C151.452 762.935 157.842 776.785 166.912 777.935C176.352 729.725 213.911 688.105 260.911 673.775C266.041 672.265 271.791 671.035 276.631 673.245C280.021 674.785 282.502 677.745 284.862 680.625C298.652 697.425 312.641 714.555 320.931 734.625C328.931 753.955 331.622 775.955 344.451 792.485C350.891 780.255 365.272 773.815 379.082 773.405C392.892 772.995 406.322 777.645 419.082 782.855C433.862 788.855 448.392 795.775 461.322 805.125C453.792 818.815 434.902 820.325 419.322 818.795C403.742 817.265 386.041 815.075 374.401 825.485C371.521 828.065 369.082 831.375 365.462 832.695C360.462 834.535 355.042 832.005 350.142 829.905C317.482 815.955 280.212 820.195 245.142 825.695C210.072 831.195 173.582 837.615 139.542 827.475C122.951 822.535 106.281 813.645 89.3115 817.095C95.9175 812.967 103.307 810.253 111.014 809.122C118.721 807.991 126.578 808.469 134.091 810.525" fill="white"/>
<path d="M133.671 807.925C135.071 808.315 134.671 807.785 134.911 807.765C132.511 807.255 133.711 808.035 133.671 807.925Z" fill="#F6F6F6"/>
<path d="M110.121 807.795L110.501 807.555C109.391 807.905 108.261 808.185 107.171 808.555C108.141 808.265 109.131 808.035 110.121 807.795Z" fill="#F6F6F6"/>
<path d="M89.5815 815.245C91.2254 814.637 92.8062 813.87 94.3015 812.955C96.2315 811.88 98.2694 811.012 100.381 810.365L101.041 810.315C101.541 809.945 102.041 809.555 102.551 809.225C101.411 809.585 100.211 810.055 98.9915 810.525C97.7715 810.995 96.5715 811.525 95.4315 812.145L93.7915 812.975L92.2415 813.825C91.1915 814.335 90.3315 814.865 89.5815 815.245Z" fill="#F6F6F6"/>
<path d="M354.621 784.155C354.234 784.468 353.863 784.802 353.511 785.155C354.021 784.695 354.371 784.385 354.621 784.155Z" fill="#F6F6F6"/>
<path d="M364.401 778.745L364.581 778.465C364.131 778.755 363.971 778.915 364.401 778.745Z" fill="#F6F6F6"/>
<path d="M322.092 746.035L321.092 744.375C322.012 747.215 321.792 745.905 322.092 746.035Z" fill="#F6F6F6"/>
<path d="M355.901 777.715C355.021 778.325 354.711 778.715 354.781 778.715C355.651 778.035 356.151 777.695 355.901 777.715Z" fill="#F6F6F6"/>
<path d="M173.002 764.505L172.792 765.035C172.842 765.035 172.912 764.835 173.002 764.505Z" fill="#F6F6F6"/>
<path d="M130.371 790.315C130.481 789.625 130.651 788.495 130.901 787.455C130.655 788.394 130.478 789.35 130.371 790.315V790.315Z" fill="#F6F6F6"/>
<path d="M255.791 677.035L255.471 677.105C254.051 677.725 254.681 677.475 255.791 677.035Z" fill="#F6F6F6"/>
<path d="M334.462 780.755C334.952 782.005 335.392 783.275 335.922 784.525C333.082 780.525 331.972 777.105 332.982 780.815C333.732 780.815 335.422 784.325 337.452 787.715L339.452 790.775C340.352 792.045 341.242 793.205 342.002 794.175C342.584 794.935 343.205 795.666 343.862 796.365C344.322 796.825 344.592 797.015 344.642 796.675L344.721 796.765L346.922 793.565C346.252 794.645 346.181 794.945 345.531 796.035C346.101 795.225 346.532 794.455 347.022 793.785C347.512 793.115 347.851 792.505 348.161 791.955C348.471 791.405 348.732 790.955 348.962 790.455C349.063 790.206 349.184 789.965 349.322 789.735C349.432 789.535 349.442 789.475 349.512 789.335C349.755 788.739 350.046 788.164 350.382 787.615C350.665 787.232 350.969 786.865 351.292 786.515L351.901 785.855C352.141 785.625 352.412 785.405 352.712 785.165C353.012 784.925 353.511 784.535 353.841 784.295C354.171 784.055 354.492 783.905 354.702 783.795C355.112 783.595 355.162 783.665 354.642 784.155C355.814 783.105 357.053 782.133 358.352 781.245C359.572 780.595 359.352 780.965 358.182 781.615C360.242 780.367 362.402 779.293 364.642 778.405V778.465C365.102 778.195 365.852 777.795 366.642 777.395C367.432 776.995 368.262 776.675 368.802 776.395C370.652 776.105 367.931 776.775 368.441 776.825C369.071 776.575 369.721 776.375 370.371 776.175C371.021 775.975 371.671 775.755 372.371 775.605C373.231 775.605 372.832 775.885 371.882 776.175C370.932 776.465 369.462 776.865 368.132 777.255C369.507 777.418 370.902 777.24 372.191 776.735C374.532 775.994 376.998 775.736 379.441 775.975C378.191 776.105 376.942 776.185 375.702 776.415C377.064 776.628 378.442 776.735 379.822 776.735C381.653 776.771 383.478 776.952 385.281 777.275C384.791 777.095 382.691 776.675 381.221 776.365C379.751 776.055 378.921 775.745 381.121 775.555C382.874 775.705 384.634 775.748 386.392 775.685C386.392 776.165 388.692 776.255 391.582 776.685L391.281 777.285C392.886 777.452 394.5 777.505 396.112 777.445C399.552 778.325 400.112 779.055 400.802 779.665C406.212 781.385 397.262 777.755 403.802 779.585C408.262 781.265 411.481 782.165 416.971 783.945C419.971 785.405 416.282 784.085 417.332 784.705L420.332 785.365C421.002 785.655 420.722 785.705 420.582 785.735C422.982 786.525 421.022 785.225 424.742 786.605C426.022 786.375 431.742 790.765 436.492 792.215C437.492 792.905 435.802 792.315 436.022 792.695C439.142 793.925 440.461 794.515 441.651 795.005L446.292 797.035C447.625 797.921 448.908 798.828 450.142 799.755C447.412 797.595 451.512 799.285 455.042 801.005C454.132 800.135 453.341 799.415 452.781 799.005C454.615 799.985 456.425 801.011 458.212 802.085C458.772 802.595 458.132 802.425 457.132 802.085L458.132 802.595C459.042 803.345 459.131 803.595 458.841 803.595C458.262 803.503 457.697 803.335 457.161 803.095L455.522 801.535C454.032 801.025 452.591 800.645 452.661 801.125C453.281 801.399 453.883 801.713 454.462 802.065C454.062 801.935 453.802 801.885 453.922 802.065C454.451 802.399 455.018 802.667 455.612 802.865L456.371 804.245H456.811L457.191 804.535L457.411 804.715L457.811 805.065L458.542 805.715L458.621 805.785C458.621 805.785 458.572 805.865 458.552 805.895L458.382 806.105L458.052 806.515C457.859 806.775 457.641 807.016 457.401 807.235C457.401 807.325 457.162 807.655 456.992 807.935C456.833 808.225 456.652 808.502 456.452 808.765L455.221 810.345C454.801 810.885 454.282 811.345 453.792 811.845C453.279 812.377 452.72 812.862 452.121 813.295C449.146 815.571 445.72 817.187 442.072 818.035C444.172 817.035 442.342 817.105 442.332 816.475C443.065 816.481 443.794 816.37 444.492 816.145C444.892 816.025 445.321 815.895 445.751 815.745L447.072 815.165C449.014 814.248 450.901 813.216 452.721 812.075C450.721 813.205 450.982 812.685 451.432 812.295C450.342 813.056 449.203 813.744 448.022 814.355C446.799 814.948 445.548 815.479 444.272 815.945C444.272 815.675 443.842 815.705 443.142 815.845C442.442 815.985 441.431 816.145 440.371 816.275C440.811 816.435 440.671 816.635 440.161 816.865C439.34 817.127 438.501 817.33 437.651 817.475C436.581 817.655 435.341 817.785 434.161 817.925C432.981 818.065 431.842 818.135 430.992 818.225C430.772 817.875 431.582 817.605 435.682 817.315C434.714 817.262 433.744 817.288 432.781 817.395C431.951 817.505 431.231 817.705 430.501 817.855C429.745 818.048 428.977 818.188 428.202 818.275C427.236 818.347 426.265 818.3 425.311 818.135C425.978 818.22 426.654 818.193 427.311 818.055C425.708 818.168 424.098 818.135 422.501 817.955C420.921 817.775 419.831 817.545 420.501 817.455L421.501 817.535C418.161 817.215 412.931 816.605 408.401 816.425C403.871 816.245 400.041 816.475 399.531 816.915C399.461 816.805 400.432 815.915 400.862 815.715C396.728 816.58 392.703 817.901 388.862 819.655C389.312 819.185 388.442 818.745 388.132 818.225C387.972 817.965 387.951 817.685 388.341 817.355C388.62 817.141 388.926 816.966 389.251 816.835C389.81 816.637 390.381 816.476 390.962 816.355C389.952 816.417 388.949 816.557 387.962 816.775C387.372 816.915 386.732 817.035 386.022 817.255C385.312 817.475 384.552 817.775 383.702 818.095C384.882 817.845 386.772 818.265 385.292 818.785C384.493 818.844 383.701 818.965 382.922 819.145C382.362 819.265 381.921 819.375 381.531 819.495C381.004 819.637 380.486 819.814 379.982 820.025L378.802 820.475C378.242 820.67 377.698 820.904 377.172 821.175C377.972 820.765 378.081 821.075 377.721 821.665C377.477 822.032 377.188 822.368 376.862 822.665C376.662 822.851 376.442 823.041 376.202 823.235C375.97 823.461 375.726 823.674 375.471 823.875C375.701 823.475 374.592 823.125 375.322 822.385C374.532 823.285 373.702 824.115 372.992 825.035C372.282 825.955 371.652 826.865 370.992 827.765C371.992 826.455 370.501 826.915 369.281 827.665C369.581 827.505 368.611 828.515 367.401 829.425C366.384 830.201 365.241 830.796 364.022 831.185C364.779 831.066 365.518 830.851 366.221 830.545C365.139 831.125 363.986 831.561 362.792 831.845C361.914 832.071 361.022 832.238 360.121 832.345C357.716 832.584 355.292 832.147 353.121 831.085C354.041 831.195 355.652 830.585 352.322 829.085C351.442 828.995 349.322 828.915 346.792 828.645C345.492 828.535 344.112 828.255 342.602 828.105C341.046 827.917 339.504 827.636 337.982 827.265C337.622 827.035 337.252 826.805 336.882 826.605L332.012 825.745C332.802 825.745 333.951 825.745 335.301 825.745L337.482 825.815C338.242 825.875 339.031 825.965 339.831 826.045C341.441 826.225 343.122 826.395 344.682 826.635C346.242 826.875 347.681 827.235 348.871 827.515C346.331 826.255 348.292 826.835 344.302 825.375C343.642 825.005 344.232 825.045 345.132 825.295C346.032 825.545 347.221 825.975 347.811 826.185C344.811 824.835 341.601 823.895 338.471 822.795C338.711 823.565 330.981 821.545 331.221 822.235C334.721 822.865 338.222 823.445 341.712 824.395C341.822 824.785 340.202 824.745 337.712 824.395C336.472 824.265 335.022 824.065 333.462 823.785L331.062 823.315C330.232 823.175 329.391 823.015 328.551 822.835C326.881 822.225 330.082 821.915 329.992 821.665C328.75 821.6 327.514 821.453 326.292 821.225C324.692 820.935 323.122 820.805 322.822 820.655C323.822 820.655 324.822 820.655 325.822 820.755C324.118 820.402 322.381 820.231 320.642 820.245C318.718 820.193 316.803 819.962 314.922 819.555C313.91 819.377 312.909 819.147 311.922 818.865C310.922 818.645 310.042 818.495 309.922 818.685C312.492 819.595 312.782 822.015 311.042 822.465L306.512 821.775C304.312 821.415 301.921 821.185 301.021 820.955C298.421 820.305 304.972 819.585 302.762 819.035C302.068 819.29 301.34 819.438 300.602 819.475C298.932 819.305 301.301 818.895 297.661 818.975C297.051 819.665 290.261 819.035 295.941 819.575C292.391 819.825 292.162 819.475 288.002 819.715C289.342 820.085 284.342 821.355 280.842 821.855C281.042 821.665 280.232 821.505 279.842 821.425C272.622 821.985 268.712 822.105 262.012 822.965C261.372 822.885 258.112 823.115 259.452 822.645C258.185 823.042 256.892 823.346 255.581 823.555C251.501 823.555 260.172 822.805 257.032 822.555C256.822 822.995 251.762 823.855 248.872 824.555C249.872 825.005 255.671 823.655 258.581 823.005C258.711 823.845 253.712 825.405 246.812 826.875C241.302 827.945 244.322 826.715 243.382 826.985C232.951 828.465 234.742 829.835 225.982 830.545C222.462 830.545 225.672 829.545 224.852 829.235C229.342 828.355 231.852 828.535 234.902 828.035L231.092 828.365C233.082 827.835 235.112 827.468 237.161 827.265C234.211 827.265 219.562 829.935 211.432 830.415C210.022 830.755 207.562 831.225 208.762 831.305L211.301 830.945C213.711 831.105 206.562 832.085 209.822 831.945C205.853 832.91 201.801 833.496 197.721 833.695L196.721 833.145C197.316 833.275 197.927 833.309 198.531 833.245C199.452 833.22 200.368 833.12 201.271 832.945C199.271 833.445 193.761 832.705 191.601 833.655L195.031 833.845C193.311 834.135 191.382 834.505 189.332 834.755C187.217 835.068 185.079 835.198 182.942 835.145C184.942 835.705 183.942 835.145 187.052 835.685C185.702 835.305 188.482 835.195 191.052 835.085C193.622 834.975 195.992 834.745 193.822 834.445C195.298 834.693 196.796 834.78 198.292 834.705C200.023 834.599 201.76 834.599 203.492 834.705C203.342 834.515 201.992 834.465 205.632 834.215C205.881 834.106 206.139 834.016 206.402 833.945V833.945C206.562 833.895 206.571 833.885 206.331 833.945C205.702 833.976 205.072 833.936 204.452 833.825C206.202 833.185 211.942 832.565 213.842 832.055C215.992 831.875 212.981 832.395 214.171 832.465L217.012 831.725C217.362 832.145 222.782 831.725 217.792 832.645C219.302 832.465 220.792 832.235 222.312 832.035C225.199 831.896 228.072 831.528 230.902 830.935C233.042 830.705 236.182 829.605 234.392 830.245L241.392 828.865L241.471 828.965C248.421 827.965 255.651 825.965 263.691 825.785C266.551 825.244 269.439 824.864 272.342 824.645L273.152 824.955C274.642 824.745 276.901 824.615 278.941 824.505C280.456 824.509 281.967 824.361 283.452 824.065C285.102 824.435 288.732 824.335 292.622 824.135L298.422 823.925C300.262 823.925 301.951 823.925 303.271 824.005L303.482 823.505C305.292 823.505 307.061 823.645 308.941 823.675C309.891 823.675 310.862 823.675 311.872 823.745L315.072 823.925L314.842 823.455C315.941 823.466 317.04 823.54 318.132 823.675C319.332 823.855 320.632 824.095 322.002 824.355C324.742 824.805 327.681 825.675 330.691 826.215C329.67 826.165 328.66 825.973 327.691 825.645C328.561 825.945 329.452 826.205 330.352 826.435C331.252 826.665 332.152 826.955 333.072 827.175C334.892 827.655 336.782 827.945 338.592 828.465C340.402 828.985 342.241 829.335 343.941 829.945C345.578 830.502 347.176 831.17 348.721 831.945C350.038 832.348 351.311 832.88 352.522 833.535L352.112 833.395L352.772 833.675C353.462 834.025 354.181 834.395 355.001 834.755C354.321 834.405 353.682 834.075 353.132 833.815C354.87 834.493 356.677 834.98 358.522 835.265C358.802 835.475 359.072 835.695 359.362 835.895L359.882 835.945C362.112 836.295 361.662 835.815 360.522 835.415C361.507 835.427 362.49 835.303 363.441 835.045C364.788 835.209 366.148 834.89 367.281 834.145C368.681 833.405 369.861 832.385 371.001 831.955C371.441 831.355 373.192 829.475 374.712 827.785C376.232 826.095 377.951 824.705 378.161 824.115C378.281 824.175 378.762 823.925 377.932 824.465C378.822 823.955 379.692 823.405 380.602 822.995C381.052 822.775 381.481 822.545 381.901 822.305C382.321 822.065 382.772 821.885 383.182 821.655L384.182 821.905C384.812 821.485 385.512 821.195 386.182 820.825C386.861 820.451 387.563 820.117 388.281 819.825C389.176 819.686 390.087 819.686 390.982 819.825C391.302 819.945 390.912 820.155 389.632 820.625C391.504 820.053 393.421 819.635 395.362 819.375C396.592 819.265 397.672 819.075 400.542 818.725L400.272 819.115C402.272 819.115 405.611 818.705 406.841 819.115C408.071 819.525 409.971 819.615 412.501 819.905C415.031 820.195 418.081 820.545 421.501 820.815C428.391 821.396 435.324 821.172 442.161 820.145C440.871 819.815 442.301 819.685 444.091 819.405C444.981 819.235 445.972 819.055 446.742 818.825C447.512 818.595 448.061 818.285 448.091 818.035C448.871 818.035 450.592 817.565 448.762 818.505C449.512 818.215 450.191 817.855 450.841 817.505C451.491 817.155 452.131 816.935 452.691 816.585C453.758 816.027 454.79 815.406 455.781 814.725C456.69 814.135 457.529 813.444 458.281 812.665C458.661 812.275 459.022 811.885 459.382 811.465C459.718 811.011 460.025 810.537 460.302 810.045C461.012 809.635 459.691 811.415 460.251 810.995L460.572 810.515L460.811 810.165L461.172 809.685C461.692 809.055 462.072 808.345 462.452 807.935C462.832 807.525 462.671 807.845 462.341 808.455C462.157 808.819 461.953 809.173 461.732 809.515L460.971 810.515C461.374 810.052 461.751 809.568 462.102 809.065L462.962 807.655C463.482 806.761 463.921 805.991 464.281 805.345L464.542 804.865C464.602 804.725 464.792 804.555 464.542 804.485L463.682 803.965C463.142 803.655 462.682 803.405 462.292 803.215C460.712 802.465 460.112 802.535 459.572 802.645L458.512 801.775L457.732 801.155C457.273 800.791 456.792 800.457 456.292 800.155C455.368 799.598 454.385 799.145 453.362 798.805C452.552 798.005 451.122 796.805 454.492 798.805C453.572 798.205 450.772 796.355 448.052 794.805C445.332 793.255 442.781 792.005 442.531 792.235C441.511 791.575 440.421 791.029 439.281 790.605C434.891 788.405 434.522 788.175 430.112 786.235L431.292 786.875C429.242 786.795 427.572 785.395 423.962 783.965H424.091C422.228 782.958 420.289 782.098 418.292 781.395C416.318 780.693 414.391 779.868 412.522 778.925L412.802 779.535C411.692 780.215 405.712 776.235 400.602 775.295L402.311 776.055C400.571 775.622 398.891 774.974 397.311 774.125C396.391 773.705 395.472 773.285 394.612 772.915C393.836 772.59 393.037 772.323 392.221 772.115C391.621 771.915 393.222 772.115 394.082 772.255C392.992 771.911 391.874 771.664 390.742 771.515C390.212 771.515 390.132 771.515 390.112 771.685C390.092 771.855 390.262 772.275 387.482 772.035C386.992 771.805 387.342 771.625 387.352 771.445C387.362 771.265 387.021 771.065 385.121 770.895C382.822 770.718 380.511 770.805 378.232 771.155C375.032 771.485 371.532 772.155 368.922 772.505C370.112 772.505 371.251 772.505 368.751 773.275C367.751 773.515 366.651 773.815 365.411 774.095C364.171 774.375 362.881 774.745 361.621 775.205C360.389 775.623 359.19 776.131 358.031 776.725C357.06 777.229 356.159 777.857 355.352 778.595C354.882 778.815 354.682 778.865 354.632 778.825C354.002 779.285 353.182 779.825 352.332 780.615C351.416 781.353 350.545 782.145 349.721 782.985C348.953 783.77 348.225 784.595 347.542 785.455C347.101 786.049 346.703 786.674 346.352 787.325C345.572 787.515 344.942 788.155 344.352 789.325C344.352 789.325 344.301 789.435 344.281 789.435L344.191 789.325L344.022 789.105L343.661 788.675C343.411 788.375 343.142 788.085 342.882 787.755L342.492 787.245L342.292 786.985L342.002 786.575C341.602 785.995 341.192 785.455 340.872 784.905C340.315 784.017 339.807 783.099 339.352 782.155C339.062 781.425 338.992 780.945 339.232 780.835C338.562 779.515 337.881 778.195 337.301 776.835C336.721 775.475 336.102 774.115 335.542 772.725L335.771 772.885C334.736 769.779 333.434 766.768 331.882 763.885C331.572 762.575 332.002 763.465 332.112 763.545C329.842 755.405 329.612 754.545 326.732 748.005L326.982 747.145C326.542 746.265 325.812 743.265 324.622 739.535C323.38 735.412 321.704 731.433 319.622 727.665C319.702 727.665 319.861 727.825 320.221 728.405C317.931 724.225 315.491 719.085 313.051 714.785C310.611 710.485 308.252 707.035 306.542 706.125C305.222 704.515 303.902 702.915 302.542 701.345C307.142 707.925 301.221 700.825 302.911 703.675C300.981 701.195 298.481 696.825 300.911 699.865L301.202 700.405C302.012 700.695 300.592 698.635 299.012 696.515C297.432 694.395 295.712 692.195 296.012 692.085L288.792 682.785L285.152 678.245C283.893 676.647 282.49 675.167 280.962 673.825C279.319 672.411 277.403 671.352 275.331 670.715C273.295 670.136 271.175 669.906 269.062 670.035C267.07 670.164 265.095 670.479 263.161 670.975C262.161 671.205 261.292 671.455 260.382 671.725L257.712 672.635L259.562 672.765L254.632 674.425C253.292 674.705 252.702 674.485 256.232 673.295C254.963 673.554 253.738 673.992 252.592 674.595C251.811 674.919 251.088 675.369 250.452 675.925C243.642 678.515 252.751 674.025 250.691 674.925L247.911 676.175L248.581 675.985C247.501 676.605 246.942 676.985 246.142 677.475C245.742 677.705 245.281 677.955 244.661 678.255C244.041 678.555 243.252 678.855 242.262 679.385C239.682 680.535 240.771 679.635 239.771 680.125C239.771 680.075 239.402 680.225 238.242 680.885C236.242 681.885 234.292 682.815 232.432 683.975C233.282 683.695 234.121 683.395 234.971 683.135C232.611 684.865 229.682 686.285 232.592 685.285C230.813 685.995 229.091 686.841 227.441 687.815C225.261 689.135 222.822 690.875 220.392 692.545C219.152 693.355 218.051 694.325 216.971 695.175L213.971 697.595C213.071 698.335 212.242 698.935 211.632 699.475C211.022 700.015 210.551 700.415 210.271 700.615C208.911 702.135 207.492 703.615 205.952 705.045C204.412 706.475 202.951 708.185 201.161 709.945C202.101 709.135 203.082 709.055 200.072 712.065C200.072 709.945 194.492 717.565 191.592 719.695C193.942 717.595 184.452 729.615 188.092 726.225C187.522 726.915 187.242 727.285 187.092 727.445C186.942 727.605 186.861 727.565 186.811 727.505C186.761 727.445 186.661 727.135 185.811 728.195C184.811 730.055 183.592 731.965 182.332 733.915C181.072 735.865 179.921 738.035 178.641 740.135C177.34 742.312 176.152 744.555 175.082 746.855C174.508 748.015 173.938 749.185 173.372 750.365C172.822 751.555 172.371 752.805 171.921 754.035C172.031 754.255 172.922 752.715 172.342 754.915C171.412 756.535 170.432 758.155 169.522 759.805C168.982 761.805 169.912 761.955 168.202 765.415C168.502 764.945 168.952 764.245 168.592 765.595C168.232 766.945 167.691 768.015 167.361 769.265C167.031 770.515 166.711 771.785 166.361 773.045L165.792 775.325L165.722 775.595C165.722 775.665 165.722 775.825 165.592 775.755C165.412 775.734 165.235 775.697 165.061 775.645C164.719 775.558 164.384 775.441 164.061 775.295C163.717 775.148 163.382 774.978 163.061 774.785C162.651 774.545 162.062 774.175 161.592 773.845C160.592 773.155 159.592 772.365 158.592 771.555C156.576 769.785 154.456 768.138 152.241 766.625C150.995 765.808 149.619 765.21 148.172 764.855C146.59 764.505 144.942 764.616 143.422 765.175C141.957 765.743 140.653 766.66 139.622 767.845C138.692 768.929 137.881 770.109 137.201 771.365C135.901 773.725 134.711 776.125 133.641 778.585C132.571 781.045 131.641 783.585 130.821 786.145C131.891 783.415 131.382 785.295 130.922 787.455C131.322 786.065 131.342 787.575 131.632 787.355C130.761 790.201 130.093 793.105 129.632 796.045C129.779 796.772 129.829 797.515 129.782 798.255C129.782 799.255 129.782 800.405 129.782 801.555C129.782 802.135 129.782 802.705 129.782 803.235C129.782 803.765 129.852 804.285 129.902 804.725C129.904 805.338 130.044 805.943 130.312 806.495C130.162 805.575 130.112 804.635 130.012 803.705C130.502 805.545 130.801 804.205 131.201 802.535C131.601 800.865 132.142 798.835 132.602 799.115C132.252 797.115 132.731 794.435 133.481 791.575C134.375 788.533 135.086 785.441 135.611 782.315C136.231 780.995 135.531 783.585 135.981 782.915C136.091 781.225 136.651 779.255 138.361 775.915L138.282 776.345C139.134 774.27 140.218 772.297 141.512 770.465C142.03 769.795 142.655 769.214 143.361 768.745C144.021 768.362 144.753 768.12 145.512 768.035C147.187 767.942 148.839 768.469 150.152 769.515C152.173 771.008 154.103 772.621 155.931 774.345L155.552 773.405C157.502 775.135 157.871 775.605 158.821 776.465C160.311 777.085 158.722 775.975 157.272 774.765C155.822 773.555 154.422 772.305 155.702 772.885C156.622 774.064 157.687 775.122 158.872 776.035C159.262 776.345 159.681 776.665 160.131 776.975C160.351 777.135 160.592 777.285 160.832 777.435L161.192 777.665L161.671 777.935C162.997 778.69 164.43 779.236 165.921 779.555C166.291 779.635 166.642 779.725 167.022 779.785L167.571 779.885L167.851 779.935C167.851 779.935 167.962 779.935 167.982 779.935V779.805L168.652 777.805C168.875 777.148 169.066 776.481 169.222 775.805L169.482 774.805L169.702 773.985C169.962 772.785 170.404 771.632 171.012 770.565C171.152 770.073 171.255 769.572 171.321 769.065C171.321 768.925 171.211 769.065 171.101 769.155C170.991 769.245 170.661 769.635 171.251 767.765L171.842 766.865L171.792 765.725C172.612 763.285 173.351 762.175 173.611 762.165C173.401 762.745 173.162 763.865 172.982 764.505C174.142 761.405 176.062 755.695 176.542 754.655L175.012 758.085L176.421 754.245C176.681 753.595 176.902 752.915 177.192 752.245L178.092 750.295L179.942 746.295L180.881 744.295L181.942 742.365L184.061 738.525L185.061 736.615C185.411 735.985 185.811 735.385 186.181 734.785C186.911 733.565 187.641 732.375 188.351 731.205L189.351 729.465L189.851 728.595L190.381 727.785L189.732 728.285C191.03 726.258 192.449 724.311 193.982 722.455C194.982 721.125 196.302 719.885 198.982 716.455L198.811 716.725C199.291 715.995 199.881 715.165 200.551 714.285C201.221 713.405 202.061 712.595 202.891 711.745C201.561 713.495 206.111 709.125 204.331 711.395C205.731 709.775 206.601 708.765 207.171 708.075C207.741 707.385 208.052 707.075 208.262 706.795C208.98 705.701 209.765 704.653 210.611 703.655L211.831 703.045C212.431 702.265 212.731 701.815 213.281 701.185C214.25 700.198 215.278 699.273 216.362 698.415C213.772 700.895 218.882 697.125 216.032 699.945C217.703 698.84 219.315 697.648 220.862 696.375C222.242 695.305 223.471 694.375 224.551 693.535C226.731 691.845 228.391 690.445 230.551 689.935C232.061 688.425 230.302 689.315 228.392 690.415C226.482 691.515 224.612 693.075 225.502 692.315C224.612 692.735 225.201 692.085 226.331 691.135C226.911 690.665 227.581 690.075 228.331 689.585C229.081 689.095 229.822 688.645 230.452 688.295C233.002 686.855 235.282 686.695 241.792 683.455C241.142 683.785 241.132 683.875 240.492 684.205C241.747 683.655 242.963 683.02 244.132 682.305C245.477 681.58 246.895 680.997 248.362 680.565C249.842 679.265 252.362 678.895 252.572 677.945L246.471 680.755C248.271 680.035 249.852 679.035 251.792 678.035C254.122 676.891 256.565 675.993 259.081 675.355C258.022 675.985 256.923 676.547 255.792 677.035C257.602 676.665 259.082 675.735 260.952 675.345C260.812 675.815 258.952 676.515 256.572 677.345C255.412 677.755 254.142 678.195 252.932 678.655C251.857 679.124 250.809 679.652 249.792 680.235C251.156 679.748 252.491 679.184 253.792 678.545C255.112 678.015 255.971 677.705 255.161 678.435C256.631 677.423 258.275 676.694 260.012 676.285C262.012 675.645 264.142 675.135 266.382 674.285L266.172 674.805C267.283 674.411 268.438 674.152 269.612 674.035C268.832 674.275 268.052 674.595 267.292 674.915C268.966 674.404 270.745 674.342 272.452 674.735C273.945 675.113 275.383 675.681 276.732 676.425C275.877 675.912 274.976 675.48 274.042 675.135C273.582 674.965 273.532 674.875 273.612 674.795C273.692 674.715 274.432 674.525 272.992 674.065C274.541 674.159 276.031 674.689 277.292 675.595C277.951 676.097 278.519 676.71 278.971 677.405C280.529 679.814 282.263 682.104 284.161 684.255C283.489 683.462 282.868 682.627 282.301 681.755C281.791 680.985 281.622 680.555 282.452 681.375C283.731 683.036 284.919 684.765 286.012 686.555C290.782 692.245 285.662 685.355 287.892 687.625C289.032 689.955 290.382 690.305 292.542 692.735L292.182 693.055C297.182 699.885 294.391 694.175 298.721 700.435L296.242 698.295L298.782 701.295L297.852 700.975C300.103 703.392 302.094 706.04 303.792 708.875C303.502 707.875 304.842 708.805 306.922 711.875C308.072 714.165 305.781 710.925 308.691 715.325C307.423 714.299 306.427 712.977 305.792 711.475C305.542 711.365 304.892 710.665 304.622 710.555C305.367 711.932 306.188 713.268 307.081 714.555L309.312 717.935C308.942 717.315 308.492 716.555 308.312 716.145C309.092 717.145 309.851 718.145 310.581 719.215C311.311 720.285 312.082 721.275 312.782 722.345C313.202 723.475 312.612 722.715 312.032 721.965C312.812 723.295 313.572 724.095 314.632 726.095C313.992 725.765 313.762 726.095 312.042 723.355C312.692 724.355 313.331 725.355 313.941 726.425C314.551 727.495 315.182 728.485 315.752 729.545C315.802 730.055 316.902 733.075 316.372 732.285C317.812 735.965 320.822 741.005 322.182 746.215C322.518 746.79 322.79 747.4 322.992 748.035C324.452 752.855 325.242 757.315 327.592 762.945C327.722 764.105 327.832 765.275 327.992 766.445C329.672 770.925 327.322 761.735 330.132 769.175C332.272 774.395 330.282 771.365 330.792 773.295C332.96 777.066 334.916 780.956 336.652 784.945C335.844 783.59 335.113 782.191 334.462 780.755V780.755ZM380.911 775.595L378.792 775.845C378.166 775.955 377.527 775.955 376.901 775.845C378.081 775.255 379.061 775.425 380.911 775.595ZM459.542 806.035C459.542 805.795 460.052 805.425 459.492 805.205C459.139 804.891 458.805 804.558 458.492 804.205C458.842 804.425 459.201 804.675 459.561 804.945C459.74 805.074 459.91 805.215 460.072 805.365L459.542 806.035ZM225.911 831.035H226.021C228.551 830.825 227.651 830.885 225.911 831.035ZM220.691 831.565C220.181 831.715 220.222 831.775 220.452 831.805C221.379 831.544 222.331 831.377 223.292 831.305C222.415 831.244 221.535 831.339 220.691 831.585V831.565ZM239.322 680.565L240.322 680.215C238.292 681.365 238.792 680.955 239.322 680.535V680.565Z" fill="#F6F6F6"/>
<path d="M322.271 746.375V746.205C322.239 746.149 322.194 746.102 322.142 746.065L322.271 746.375Z" fill="#F6F6F6"/>
<path d="M128.921 802.035C128.841 803.115 128.841 804.195 128.841 805.285L129.061 803.175L128.921 802.035Z" fill="#F6F6F6"/>
<path d="M130.062 808.155C129.872 808.425 129.701 808.705 129.521 808.985L130.372 810.815C130.173 809.942 130.069 809.05 130.062 808.155V808.155Z" fill="#F6F6F6"/>
<path d="M352.311 787.035C352.471 786.885 352.621 786.715 352.791 786.575C352.361 786.715 351.941 786.885 351.501 787.045L352.311 787.035Z" fill="#F6F6F6"/>
<path d="M329.081 770.935C329.551 772.335 330.281 773.935 330.831 775.325C330.335 774.181 329.949 772.992 329.682 771.775C329.472 770.965 329.351 770.625 329.081 770.935Z" fill="#F6F6F6"/>
<g clip-path="url(#clip2_1_4)">
<path d="M-161.95 107.29C-153.856 100.942 -143.933 97.3685 -133.65 97.1C-143.15 91.47 -142.75 77.1 -137.45 67.42C-126.31 47.07 -102.08 38.47 -79.94 31.52C-75.8 30.22 -71.46 28.91 -67.17 29.63C-53.36 32 -54.49 42.57 -43 50.6C-40.45 43.52 -37.55 41.25 -34 34.6C-29.05 25.32 -28.42 18.6 -23 9.60001C-17 -0.399992 -18 -4.62999 -8.00002 -8.51999C1.99998 -12.41 11.58 -10.78 21.44 -9.93999C29.26 -9.26999 37.84 -8.22999 43.16 -2.45999C47.09 1.82001 48.38 7.87001 48.87 13.66C50.45 32.31 45.64 52.66 55.09 68.79C61.09 61.89 67.58 54.71 76.28 51.79C84.98 48.87 96.44 52.27 99.12 61.03C99.97 63.8 99.88 66.81 100.86 69.54C103.74 77.54 113.86 79.54 122.28 80.54C162.326 85.0017 202.017 92.2188 241.07 102.14L233.07 102.83" fill="#F6F6F6"/>
<path d="M-157.79 107.26C-160.922 106.798 -164.119 107.094 -167.114 108.122C-170.108 109.15 -172.812 110.881 -175 113.17C-131.77 106.236 -87.8336 104.834 -44.25 109C-30.79 110.28 -16.83 112 -4.02 107.71C1.52 105.83 6.67001 102.86 12.32 101.32C23.84 98.18 35.99 101.32 47.86 102.64C62.94 104.32 78.17 103.03 93.29 101.73C135.7 98.11 158.58 102.25 200.99 98.62" fill="#F6F6F6"/>
</g>
</g>
<defs>
<clipPath id="clip0_1_4">
<rect width="375" height="812" fill="white"/>
</clipPath>
<clipPath id="clip1_1_4">
<rect width="375.82" height="166.36" fill="white" transform="matrix(-1 0 0 1 590.82 172)"/>
</clipPath>
<clipPath id="clip2_1_4">
<rect width="416.07" height="124.17" fill="white" transform="translate(-175 -11)"/>
</clipPath>
</defs>
</svg>
