<svg width="313" height="262" viewBox="0 0 313 262" fill="none" xmlns="http://www.w3.org/2000/svg">
<g clip-path="url(#clip0_31_501)">
<path d="M264.865 242.053C292.674 216.718 309.882 181.707 309.882 143.028C309.882 65.7554 241.209 3.1093 156.5 3.1093C71.7904 3.1093 3.11743 65.7554 3.11743 143.028C3.11743 181.135 19.8274 215.686 46.9125 240.908C35.6146 263.295 18.2312 305.806 23.0696 358.813C28.5689 419.357 62.6124 489.403 96.6433 489.403C121.845 489.403 130.313 451.035 158.994 452.092C187.675 453.149 193.748 491.766 216.356 491.891C248.43 492.065 283.134 414.606 284.942 343.888C286.064 299.985 274.417 264.402 264.865 242.053Z" fill="white" stroke="#FFD24A" stroke-width="5" stroke-miterlimit="10"/>
<path d="M60.2805 255.485C66.1789 249.963 108.453 210.711 121.945 217.24C136.523 224.242 109.238 280.67 106.769 285.645" fill="white"/>
<path d="M60.2805 255.485C66.1789 249.963 108.453 210.711 121.945 217.24C136.523 224.242 109.238 280.67 106.769 285.645" stroke="#FFD24A" stroke-width="5" stroke-miterlimit="10"/>
<path d="M243.454 254.428C237.793 249.117 197.315 211.482 185.929 218.223C173.659 225.511 202.39 280.508 204.984 285.384" fill="white"/>
<path d="M243.454 254.428C237.793 249.117 197.315 211.482 185.929 218.223C173.659 225.511 202.39 280.508 204.984 285.384" stroke="#FFD24A" stroke-width="5" stroke-miterlimit="10"/>
<path d="M67.4633 171.919C62.5721 169.199 58.5255 165.189 55.7664 160.328C52.9592 155.174 51.4888 149.402 51.4888 143.538C51.4888 137.673 52.9592 131.901 55.7664 126.747C58.5208 121.896 62.5697 117.901 67.4633 115.206C72.5731 112.413 78.3222 110.99 84.1484 111.077C89.974 110.995 95.7218 112.417 100.833 115.206C105.729 117.923 109.757 121.962 112.456 126.859C115.223 132.025 116.67 137.792 116.67 143.65C116.67 149.507 115.223 155.274 112.456 160.44C109.735 165.304 105.711 169.318 100.833 172.031C95.7358 174.862 89.9821 176.307 84.1484 176.223C78.3041 176.276 72.5489 174.792 67.4633 171.919ZM96.3816 165.415C99.9941 163.352 102.934 160.295 104.849 156.609C106.85 152.567 107.891 148.12 107.891 143.612C107.891 139.104 106.85 134.657 104.849 130.615C102.934 126.929 99.9941 123.872 96.3816 121.81C92.6238 119.778 88.4168 118.713 84.1421 118.713C79.8675 118.713 75.6604 119.778 71.9027 121.81C68.284 123.873 65.3264 126.918 63.3731 130.59C61.3314 134.62 60.2676 139.072 60.2676 143.587C60.2676 148.102 61.3314 152.554 63.3731 156.584C65.3188 160.275 68.2771 163.338 71.9027 165.415C75.6604 167.447 79.8675 168.511 84.1421 168.511C88.4168 168.511 92.6238 167.447 96.3816 165.415ZM92.7902 86.5877H104.362L84.6222 101.649H76.0677L92.7902 86.5877Z" fill="#FFD24A"/>
<path d="M159.391 131L185 163H177.605L156.604 136.034H156.396L135.395 163H128L153.609 131H159.391Z" fill="#FFD24A"/>
<path d="M216.406 171.919C211.519 169.198 207.477 165.188 204.722 160.328C201.915 155.174 200.444 149.402 200.444 143.538C200.444 137.673 201.915 131.901 204.722 126.747C207.471 121.896 211.516 117.901 216.406 115.206C221.548 112.494 227.276 111.076 233.091 111.076C238.907 111.076 244.635 112.494 249.776 115.206C254.657 117.897 258.687 121.894 261.411 126.747C264.179 131.913 265.628 137.68 265.628 143.538C265.628 149.395 264.179 155.162 261.411 160.328C258.683 165.191 254.655 169.203 249.776 171.919C244.648 174.67 238.915 176.11 233.091 176.11C227.268 176.11 221.535 174.67 216.406 171.919ZM245.337 165.365C248.95 163.303 251.889 160.245 253.804 156.559C255.806 152.518 256.847 148.07 256.847 143.562C256.847 139.055 255.806 134.607 253.804 130.566C251.889 126.88 248.95 123.822 245.337 121.76C241.579 119.728 237.372 118.663 233.098 118.663C228.823 118.663 224.616 119.728 220.858 121.76C217.236 123.83 214.278 126.884 212.329 130.566C210.287 134.595 209.223 139.047 209.223 143.562C209.223 148.078 210.287 152.53 212.329 156.559C214.278 160.241 217.236 163.295 220.858 165.365C224.616 167.397 228.823 168.462 233.098 168.462C237.372 168.462 241.579 167.397 245.337 165.365ZM212.628 86.5877H224.2L240.885 101.649H232.368L212.628 86.5877Z" fill="#FFD24A"/>
</g>
<defs>
<clipPath id="clip0_31_501">
<rect width="313" height="262" fill="white"/>
</clipPath>
</defs>
</svg>
