<svg width="319" height="260" viewBox="0 0 319 260" fill="none" xmlns="http://www.w3.org/2000/svg">
<path d="M270.068 244.983C298.441 219.326 316 183.87 316 144.698C316 66.4431 245.931 3 159.5 3C73.0687 3 3 66.4431 3 144.698C3 183.291 20.0496 218.281 47.6852 243.824C36.1576 266.496 18.421 309.547 23.3577 363.229C28.9688 424.543 63.7042 495.481 98.4268 495.481C124.141 495.481 132.78 456.624 162.045 457.694C191.309 458.765 197.505 497.874 220.573 498C253.298 498.176 288.708 419.732 290.553 348.114C291.698 303.652 279.814 267.617 270.068 244.983Z" fill="white" stroke="#FFD14A" stroke-width="5" stroke-miterlimit="10"/>
<path d="M248.222 257.515C242.445 252.137 201.144 214.024 189.528 220.85C177.008 228.231 206.323 283.928 208.969 288.865" fill="white"/>
<path d="M248.222 257.515C242.445 252.137 201.144 214.024 189.528 220.85C177.008 228.231 206.323 283.928 208.969 288.865" stroke="#FFD14A" stroke-width="5" stroke-miterlimit="10"/>
<path d="M136.878 178.593C132.507 178.622 128.177 177.764 124.154 176.074C116.274 172.769 109.994 166.571 106.634 158.78C104.913 154.788 104.026 150.493 104.026 146.153C104.026 141.813 104.913 137.518 106.634 133.526C109.974 125.731 116.235 119.519 124.103 116.195C128.148 114.508 132.494 113.638 136.884 113.638C141.274 113.638 145.619 114.508 149.665 116.195C153.571 117.836 157.125 120.2 160.136 123.16C163.122 126.136 165.517 129.639 167.198 133.488C168.919 137.48 169.806 141.775 169.806 146.115C169.806 150.455 168.919 154.751 167.198 158.742C165.517 162.592 163.122 166.095 160.136 169.071C157.129 172.029 153.579 174.393 149.677 176.036C145.633 177.748 141.276 178.618 136.878 178.593ZM135.478 120.402H103.974V113.638H135.478V120.402ZM136.878 119.684C133.378 119.653 129.91 120.348 126.699 121.724C121.995 123.746 117.995 127.093 115.199 131.348C112.403 135.604 110.933 140.579 110.972 145.656C110.944 150.699 112.421 155.639 115.219 159.854C118.017 164.069 122.011 167.372 126.699 169.348C129.922 170.686 133.382 171.376 136.878 171.376C140.373 171.376 143.833 170.686 147.056 169.348C153.358 166.616 158.326 161.545 160.891 155.226C163.456 148.906 163.413 141.843 160.772 135.554C158.201 129.339 153.266 124.372 147.031 121.724C143.827 120.353 140.369 119.658 136.878 119.684V119.684ZM130.681 145.605C130.673 144.778 130.842 143.958 131.177 143.2C131.479 142.474 131.91 141.809 132.45 141.235C133.01 140.669 133.675 140.215 134.409 139.9C135.175 139.576 136 139.409 136.833 139.409C137.666 139.409 138.491 139.576 139.257 139.9C140.754 140.536 141.947 141.718 142.59 143.2C142.918 143.958 143.086 144.774 143.086 145.599C143.086 146.424 142.918 147.24 142.59 147.998C142.272 148.725 141.814 149.384 141.242 149.938C140.662 150.472 139.989 150.899 139.257 151.198C138.491 151.522 137.666 151.689 136.833 151.689C136 151.689 135.175 151.522 134.409 151.198C132.932 150.575 131.755 149.411 131.126 147.948C130.817 147.206 130.666 146.408 130.681 145.605V145.605ZM160.976 92.7801C162.501 93.7039 163.911 94.8031 165.175 96.0549C166.236 97.1171 167.147 98.3161 167.885 99.6194C168.534 100.754 169.026 101.97 169.348 103.234C169.632 104.342 169.781 105.48 169.793 106.622C169.801 108.218 169.547 109.805 169.043 111.321C168.502 112.952 167.637 114.459 166.498 115.754C165.216 117.169 163.652 118.305 161.905 119.092C159.764 119.998 157.45 120.428 155.123 120.351H131.61V113.638H154.245C155.553 113.68 156.855 113.444 158.062 112.945C159.025 112.527 159.891 111.918 160.607 111.157C161.271 110.47 161.787 109.655 162.121 108.764C162.443 107.931 162.611 107.048 162.617 106.156C162.634 105.198 162.483 104.243 162.172 103.335C161.897 102.521 161.494 101.756 160.976 101.068C160.461 100.382 159.877 99.7487 159.233 99.1786C158.566 98.5943 157.869 98.0436 157.146 97.5286L160.976 92.7801Z" fill="#FFD24A"/>
<path d="M220.382 192.473H176.053V186.339H220.382V192.473Z" fill="#FFD24A"/>
<path d="M259.546 178.593C255.175 178.622 250.845 177.764 246.822 176.074C242.92 174.431 239.37 172.067 236.363 169.108C233.378 166.133 230.982 162.63 229.302 158.78C227.581 154.788 226.694 150.493 226.694 146.153C226.694 141.813 227.581 137.518 229.302 133.526C230.982 129.677 233.378 126.173 236.363 123.198C239.37 120.239 242.92 117.875 246.822 116.233C250.867 114.545 255.213 113.676 259.603 113.676C263.993 113.676 268.338 114.545 272.384 116.233C276.285 117.875 279.835 120.239 282.842 123.198C285.828 126.173 288.223 129.677 289.904 133.526C291.625 137.518 292.512 141.813 292.512 146.153C292.512 150.493 291.625 154.788 289.904 158.78C288.223 162.63 285.828 166.133 282.842 169.108C279.835 172.067 276.285 174.431 272.384 176.074C268.325 177.778 263.954 178.635 259.546 178.593V178.593ZM258.108 120.402H226.642V113.638H258.108V120.402ZM259.507 119.684C256.008 119.653 252.54 120.348 249.328 121.724C244.624 123.746 240.625 127.093 237.829 131.348C235.032 135.604 233.562 140.579 233.602 145.656C233.574 150.699 235.051 155.639 237.849 159.854C240.647 164.069 244.641 167.372 249.328 169.348C252.552 170.686 256.012 171.376 259.507 171.376C263.003 171.376 266.463 170.686 269.686 169.348C275.988 166.616 280.956 161.545 283.521 155.226C286.086 148.906 286.043 141.843 283.402 135.554C280.826 129.362 275.902 124.416 269.686 121.775C266.49 120.388 263.036 119.675 259.546 119.684H259.507ZM253.311 145.605C253.303 144.778 253.472 143.958 253.807 143.2C254.109 142.474 254.54 141.809 255.08 141.235C255.639 140.669 256.305 140.215 257.039 139.9C257.805 139.576 258.63 139.409 259.463 139.409C260.296 139.409 261.12 139.576 261.887 139.9C263.384 140.536 264.577 141.717 265.22 143.2C265.547 143.958 265.716 144.774 265.716 145.599C265.716 146.424 265.547 147.24 265.22 147.998C264.901 148.725 264.443 149.384 263.872 149.938C263.292 150.472 262.619 150.899 261.887 151.198C261.12 151.522 260.296 151.689 259.463 151.689C258.63 151.689 257.805 151.522 257.039 151.198C255.561 150.575 254.385 149.411 253.756 147.948C253.46 147.203 253.322 146.406 253.349 145.605H253.311ZM283.606 92.7801C285.131 93.7039 286.54 94.8031 287.805 96.0549C288.866 97.1171 289.777 98.3161 290.515 99.6194C291.164 100.754 291.656 101.97 291.978 103.234C292.262 104.342 292.411 105.48 292.423 106.622C292.41 108.222 292.135 109.808 291.609 111.321C291.068 112.952 290.203 114.459 289.064 115.754C287.783 117.169 286.219 118.305 284.471 119.092C282.331 119.998 280.016 120.428 277.689 120.351H254.291V113.638H276.926C278.234 113.68 279.535 113.444 280.743 112.945C281.705 112.527 282.571 111.918 283.288 111.157C283.952 110.47 284.467 109.655 284.802 108.764C285.123 107.931 285.291 107.048 285.298 106.156C285.315 105.198 285.164 104.243 284.853 103.335C284.578 102.521 284.174 101.756 283.657 101.068C283.141 100.382 282.557 99.7487 281.914 99.1786C281.217 98.5919 280.491 98.0412 279.738 97.5286L283.606 92.7801Z" fill="#FFD24A"/>
</svg>
